<?xml version="1.0" encoding="utf-8"?>
<!-- Generator: Adobe Illustrator 26.0.0, SVG Export Plug-In . SVG Version: 6.00 Build 0)  -->
<svg version="1.1" id="Layer_1" xmlns="http://www.w3.org/2000/svg" xmlns:xlink="http://www.w3.org/1999/xlink" x="0px" y="0px"
	 viewBox="0 0 992.2 279.5" style="enable-background:new 0 0 992.2 279.5;" xml:space="preserve">
<style type="text/css">
	.st0{fill:#FFFFFF;}
	.st1{fill-rule:evenodd;clip-rule:evenodd;fill:#FFFFFF;}
	.st2{fill-rule:evenodd;clip-rule:evenodd;fill:#023D8D;}
	.st3{fill:#023D8D;}
	.st4{opacity:0.5;}
</style>
<g>
	<g>
		<path class="st0" d="M146.7,6.3c-0.4-1.4-1.1-2.5-2.1-3.3c-1.1-0.8-2.4-1.1-4.2-0.9c-0.4,0.1-0.8,0.2-1.3,0.3
			c-1.1,0.3-2.1,0.4-3.2,0.3c-1.3-0.1-2.5-0.5-3.5-0.9c-0.8-0.3-1.5,0.8-1,1.4c1.4,1.6,2.1,2.9,2.1,4.1s-0.7,2.4-2.1,4
			c-0.6,0.6,0.1,1.7,0.9,1.5c1-0.3,2.2-0.6,3.5-0.7c1,0,2.1,0.1,3.2,0.4c0.6,0.2,1.2,0.3,1.7,0.4c1.5,0.2,2.8-0.1,3.8-0.8
			s1.7-1.7,2.1-2.9l0,0c0.2-0.5,0.3-1.8,0.3-1.8C146.9,7.5,146.8,6.7,146.7,6.3z"/>
		<path class="st0" d="M126.8,6.6c-0.6-1.3-1.4-2.4-2.6-3s-2.6-0.8-4.3-0.2c-0.4,0.1-0.8,0.3-1.2,0.5c-1,0.5-2.1,0.7-3.1,0.8
			c-1.3,0.1-2.6-0.1-3.6-0.3c-0.8-0.2-1.4,1-0.8,1.5c1.6,1.4,2.5,2.6,2.7,3.8s-0.3,2.5-1.5,4.3c-0.5,0.7,0.4,1.7,1.1,1.3
			c0.9-0.5,2.1-1,3.4-1.2c1-0.2,2.1-0.2,3.2,0c0.6,0.1,1.2,0.2,1.7,0.2c1.6,0,2.7-0.5,3.6-1.3s1.4-1.9,1.6-3.2l0,0
			c0.1-0.5,0.1-1.8,0.1-1.8C127.2,7.8,127,7,126.8,6.6z"/>
		<path class="st0" d="M107.2,9.9c-0.8-1.2-1.8-2.1-3-2.5C103,7,101.6,7,100,7.8c-0.4,0.2-0.7,0.4-1.1,0.6c-0.9,0.6-1.9,1-3,1.2
			c-1.3,0.3-2.5,0.3-3.6,0.2c-0.8-0.1-1.2,1.2-0.5,1.6c1.8,1.1,2.8,2.2,3.2,3.3c0.4,1.1,0.1,2.5-0.8,4.4c-0.4,0.8,0.6,1.6,1.3,1.1
			c0.8-0.6,1.9-1.3,3.2-1.7c1-0.3,2-0.5,3.2-0.5c0.6,0,1.2,0,1.7-0.1c1.5-0.3,2.6-0.9,3.4-1.9c0.7-0.9,1.1-2.1,1.1-3.4l0,0
			c0-0.5-0.2-1.8-0.2-1.8C107.8,11,107.4,10.2,107.2,9.9z"/>
		<path class="st0" d="M88.3,16.1c-0.9-1.1-2-1.8-3.3-2.1c-1.3-0.2-2.7,0-4.1,1c-0.3,0.2-0.7,0.5-1,0.8c-0.8,0.7-1.8,1.3-2.7,1.6
			c-1.2,0.5-2.5,0.7-3.5,0.7c-0.8,0.1-1,1.4-0.3,1.7c1.9,0.9,3.1,1.7,3.7,2.8c0.5,1.1,0.4,2.5-0.2,4.5c-0.2,0.8,0.9,1.5,1.5,0.9
			c0.7-0.7,1.7-1.5,2.9-2.2c0.9-0.5,1.9-0.8,3-1c0.6-0.1,1.2-0.2,1.7-0.4c1.5-0.5,2.5-1.3,3.1-2.3s0.8-2.3,0.6-3.5l0,0
			c-0.1-0.5-0.5-1.7-0.5-1.8C89.1,17.1,88.6,16.4,88.3,16.1z"/>
		<path class="st0" d="M70.6,25c-1.1-0.9-2.3-1.5-3.6-1.5c-1.3,0-2.7,0.4-3.9,1.6c-0.3,0.3-0.6,0.6-0.9,0.9c-0.7,0.9-1.6,1.5-2.5,2
			c-1.1,0.7-2.3,1-3.4,1.3c-0.8,0.2-0.8,1.5,0,1.7c2,0.6,3.3,1.2,4,2.2s0.8,2.4,0.5,4.5c-0.1,0.8,1.1,1.4,1.6,0.7
			c0.6-0.9,1.5-1.8,2.5-2.6c0.8-0.6,1.8-1.1,2.9-1.4c0.6-0.2,1.2-0.4,1.6-0.6c1.4-0.7,2.2-1.7,2.7-2.8c0.4-1.1,0.4-2.3,0.1-3.6l0,0
			c-0.1-0.5-0.7-1.7-0.7-1.7C71.5,25.9,70.9,25.3,70.6,25z"/>
		<path class="st0" d="M54.3,36.5c-1.2-0.7-2.5-1.1-3.8-1c-1.3,0.2-2.6,0.8-3.7,2.2c-0.3,0.3-0.5,0.7-0.7,1.1
			c-0.6,1-1.3,1.7-2.1,2.4c-1,0.8-2.2,1.4-3.1,1.8c-0.8,0.3-0.6,1.6,0.2,1.7c2.1,0.3,3.5,0.7,4.3,1.6c0.8,0.9,1.2,2.3,1.2,4.4
			c0,0.8,1.3,1.2,1.7,0.4c0.5-0.9,1.2-2,2.1-2.9c0.7-0.7,1.6-1.4,2.6-1.8c0.6-0.3,1.1-0.5,1.5-0.9c1.3-0.9,2-2,2.2-3.1
			c0.3-1.2,0.1-2.4-0.5-3.5l0,0c-0.2-0.5-1-1.5-1-1.5C55.3,37.2,54.7,36.7,54.3,36.5z"/>
		<path class="st0" d="M40,50.3c-1.3-0.6-2.6-0.7-3.9-0.4c-1.3,0.3-2.4,1.2-3.3,2.7c-0.2,0.4-0.4,0.7-0.6,1.2
			c-0.4,1-1.1,1.9-1.8,2.7c-0.9,1-1.9,1.7-2.9,2.2c-0.7,0.4-0.3,1.7,0.5,1.7c2.1-0.1,3.6,0.2,4.5,0.9c0.9,0.7,1.5,2.1,1.8,4.1
			c0.1,0.8,1.4,1,1.7,0.2c0.3-1,0.9-2.1,1.7-3.2c0.6-0.8,1.4-1.6,2.3-2.2c0.5-0.3,1-0.7,1.4-1.1c1.1-1.1,1.7-2.3,1.7-3.4
			c0.1-1.2-0.3-2.4-1-3.4l0,0c-0.3-0.4-1.2-1.4-1.2-1.4C41.1,50.9,40.3,50.5,40,50.3z"/>
		<path class="st0" d="M27.8,66.1c-1.4-0.4-2.7-0.3-3.9,0.2c-1.2,0.5-2.2,1.6-2.8,3.2c-0.2,0.4-0.3,0.8-0.4,1.2
			c-0.3,1.1-0.8,2.1-1.3,2.9c-0.8,1.1-1.7,2-2.5,2.6c-0.7,0.5-0.1,1.7,0.7,1.6c2.1-0.4,3.5-0.3,4.6,0.2c1,0.6,1.8,1.8,2.4,3.8
			c0.2,0.8,1.6,0.7,1.7-0.1c0.2-1,0.6-2.2,1.2-3.4c0.5-0.9,1.1-1.8,2-2.5c0.5-0.4,0.9-0.8,1.2-1.3c1-1.2,1.3-2.5,1.2-3.7
			c-0.1-1.2-0.6-2.3-1.5-3.2l0,0C30,67.3,29,66.5,29,66.5S28.2,66.2,27.8,66.1z"/>
		<path class="st0" d="M18.2,83.6c-1.4-0.1-2.7,0.1-3.8,0.8c-1.1,0.7-1.9,1.9-2.3,3.6c-0.1,0.4-0.2,0.8-0.2,1.3
			c-0.1,1.1-0.4,2.1-0.9,3.1c-0.6,1.2-1.4,2.2-2.1,3c-0.6,0.6,0.2,1.7,1,1.4c2-0.7,3.5-0.9,4.6-0.5s2,1.5,2.9,3.4
			c0.4,0.8,1.7,0.5,1.7-0.3c0-1.1,0.2-2.3,0.7-3.6c0.3-1,0.9-1.9,1.6-2.8c0.4-0.5,0.7-1,1-1.4c0.8-1.4,0.9-2.6,0.7-3.8
			c-0.3-1.2-1-2.2-2-3l0,0c-0.4-0.3-1.5-1-1.5-1C19.4,83.8,18.6,83.6,18.2,83.6z"/>
		<path class="st0" d="M11.2,102.3c-1.4,0.1-2.7,0.5-3.7,1.3c-1,0.9-1.6,2.1-1.8,3.9c0,0.4,0,0.8,0,1.3c0.1,1.1-0.1,2.2-0.4,3.2
			c-0.4,1.3-1,2.4-1.6,3.2c-0.5,0.7,0.4,1.7,1.2,1.3c1.9-1,3.3-1.4,4.5-1.1s2.2,1.2,3.4,3c0.5,0.7,1.7,0.2,1.6-0.6
			c-0.1-1.1-0.1-2.3,0.1-3.6c0.2-1,0.6-2,1.1-3c0.3-0.5,0.6-1.1,0.8-1.6c0.5-1.5,0.5-2.8,0.1-3.9s-1.3-2-2.4-2.7l0,0
			c-0.4-0.3-1.6-0.7-1.7-0.7C12.4,102.3,11.6,102.2,11.2,102.3z"/>
		<path class="st0" d="M7.1,121.8c-1.4,0.3-2.6,0.9-3.4,1.9s-1.3,2.4-1.2,4.1c0,0.4,0.1,0.8,0.2,1.3c0.2,1.1,0.2,2.2,0,3.2
			c-0.2,1.3-0.7,2.5-1.1,3.4c-0.4,0.7,0.7,1.6,1.3,1.1c1.7-1.2,3-1.9,4.3-1.8c1.2,0.1,2.4,0.9,3.8,2.4c0.6,0.6,1.7,0,1.5-0.8
			c-0.3-1-0.5-2.3-0.4-3.6c0-1,0.2-2.1,0.7-3.1c0.2-0.6,0.4-1.1,0.5-1.7c0.3-1.5,0.1-2.8-0.5-3.8s-1.6-1.8-2.7-2.3l0,0
			c-0.5-0.2-1.7-0.5-1.8-0.5C8.3,121.6,7.5,121.7,7.1,121.8z"/>
		<path class="st0" d="M5.9,141.7c-1.3,0.5-2.4,1.3-3.1,2.4c-0.7,1.1-0.9,2.5-0.6,4.3c0.1,0.4,0.2,0.8,0.4,1.2
			c0.4,1,0.5,2.1,0.5,3.2c0,1.3-0.3,2.6-0.6,3.6c-0.3,0.8,0.9,1.5,1.5,0.9c1.5-1.5,2.7-2.3,3.9-2.4c1.2-0.1,2.5,0.5,4.1,1.8
			c0.7,0.5,1.7-0.3,1.4-1c-0.4-1-0.8-2.2-0.9-3.5c-0.1-1-0.1-2.1,0.2-3.2c0.2-0.6,0.2-1.2,0.3-1.7c0.1-1.6-0.3-2.8-1.1-3.7
			c-0.7-0.9-1.8-1.5-3.1-1.8l0,0c-0.5-0.1-1.8-0.2-1.8-0.2C7.1,141.4,6.3,141.6,5.9,141.7z"/>
		<path class="st0" d="M7.7,161.6c-1.2,0.7-2.2,1.6-2.7,2.8s-0.6,2.6,0.1,4.3c0.1,0.4,0.3,0.8,0.5,1.2c0.5,1,0.8,2,1,3.1
			c0.2,1.3,0.1,2.6-0.1,3.6c-0.1,0.8,1.1,1.3,1.6,0.6c1.3-1.7,2.4-2.7,3.5-3c1.2-0.3,2.5,0.1,4.3,1.2c0.7,0.4,1.7-0.5,1.2-1.2
			c-0.6-0.9-1.1-2-1.5-3.3c-0.3-1-0.4-2.1-0.3-3.2c0.1-0.6,0.1-1.2,0-1.8c-0.1-1.6-0.7-2.7-1.6-3.5c-0.9-0.8-2-1.2-3.3-1.4l0,0
			c-0.5,0-1.8,0.1-1.8,0.1C8.8,161.1,8,161.4,7.7,161.6z"/>
		<path class="st0" d="M12.4,181c-1.1,0.9-2,1.9-2.3,3.2s-0.2,2.7,0.7,4.2c0.2,0.4,0.4,0.7,0.7,1.1c0.7,0.9,1.1,1.9,1.4,2.9
			c0.4,1.3,0.5,2.5,0.5,3.6c0,0.8,1.3,1.1,1.7,0.4c1-1.9,1.9-3,3.1-3.5c1.1-0.4,2.5-0.3,4.5,0.5c0.8,0.3,1.6-0.8,1-1.4
			c-0.7-0.8-1.4-1.8-1.9-3.1c-0.4-0.9-0.7-2-0.7-3.1c0-0.6-0.1-1.2-0.2-1.7c-0.4-1.5-1.1-2.6-2.1-3.2c-1-0.7-2.2-0.9-3.5-0.9l0,0
			c-0.5,0-1.8,0.3-1.8,0.3C13.4,180.3,12.7,180.8,12.4,181z"/>
		<path class="st0" d="M20,199.4c-1,1-1.7,2.2-1.8,3.5c-0.1,1.3,0.2,2.7,1.3,4.1c0.3,0.3,0.5,0.6,0.9,1c0.8,0.8,1.4,1.7,1.8,2.6
			c0.6,1.2,0.9,2.4,1,3.5c0.1,0.8,1.4,0.9,1.7,0.1c0.7-2,1.5-3.3,2.5-3.9c1-0.6,2.4-0.6,4.5-0.2c0.8,0.2,1.4-1,0.8-1.5
			c-0.8-0.7-1.7-1.6-2.4-2.7c-0.5-0.9-1-1.9-1.2-3c-0.1-0.6-0.3-1.2-0.5-1.7c-0.6-1.4-1.5-2.4-2.6-2.9s-2.3-0.6-3.5-0.3l0,0
			c-0.5,0.1-1.7,0.6-1.7,0.6C20.9,198.6,20.2,199.2,20,199.4z"/>
		<path class="st0" d="M30.2,216.6c-0.8,1.2-1.3,2.4-1.3,3.7c0.1,1.3,0.6,2.6,1.9,3.8c0.3,0.3,0.6,0.6,1,0.8
			c0.9,0.6,1.6,1.5,2.2,2.3c0.7,1.1,1.2,2.3,1.5,3.3c0.2,0.8,1.6,0.7,1.7-0.1c0.4-2.1,1-3.4,1.9-4.2s2.3-1,4.4-0.8
			c0.8,0.1,1.3-1.2,0.6-1.6c-0.9-0.6-1.9-1.3-2.7-2.3c-0.7-0.8-1.2-1.7-1.6-2.8c-0.2-0.6-0.5-1.1-0.7-1.6c-0.8-1.3-1.8-2.1-3-2.5
			c-1.1-0.3-2.4-0.2-3.6,0.2l0,0c-0.5,0.2-1.6,0.8-1.6,0.9C30.9,215.6,30.4,216.3,30.2,216.6z"/>
		<path class="st0" d="M42.8,232c-0.7,1.3-0.9,2.6-0.7,3.9c0.2,1.3,1,2.5,2.5,3.5c0.3,0.2,0.7,0.5,1.1,0.7c1,0.5,1.8,1.2,2.5,2
			c0.9,1,1.5,2.1,2,3c0.4,0.8,1.6,0.5,1.7-0.4c0.1-2.1,0.5-3.6,1.3-4.5s2.1-1.3,4.2-1.5c0.8-0.1,1.1-1.4,0.3-1.7
			c-1-0.4-2.1-1-3.1-1.9c-0.8-0.7-1.5-1.5-2-2.5c-0.3-0.6-0.6-1-1-1.5c-1-1.2-2.1-1.8-3.3-2s-2.4,0.1-3.5,0.7l0,0
			c-0.4,0.2-1.5,1.1-1.5,1.1C43.4,230.9,43,231.6,42.8,232z"/>
		<path class="st0" d="M57.6,245.3c-0.5,1.3-0.5,2.7-0.1,3.9s1.4,2.3,3,3.1c0.4,0.2,0.8,0.3,1.2,0.5c1.1,0.3,2,0.9,2.8,1.6
			c1,0.8,1.8,1.8,2.4,2.7c0.5,0.7,1.7,0.2,1.6-0.6c-0.2-2.1-0.1-3.6,0.6-4.6s1.9-1.6,4-2.1c0.8-0.2,0.9-1.5,0.1-1.7
			c-1-0.3-2.2-0.7-3.3-1.4c-0.9-0.6-1.7-1.3-2.4-2.2c-0.4-0.5-0.8-0.9-1.2-1.3c-1.2-1-2.4-1.5-3.6-1.5c-1.2,0-2.3,0.5-3.3,1.3l0,0
			c-0.4,0.3-1.3,1.3-1.3,1.3C58,244.2,57.7,245,57.6,245.3z"/>
		<path class="st0" d="M74.1,256.3c-0.3,1.4-0.1,2.8,0.5,3.9c0.6,1.2,1.7,2.1,3.4,2.6c0.4,0.1,0.8,0.2,1.2,0.3
			c1.1,0.2,2.1,0.6,3,1.1c1.1,0.7,2.1,1.5,2.8,2.3c0.6,0.6,1.7,0,1.5-0.8c-0.5-2.1-0.6-3.5-0.1-4.6s1.7-1.9,3.6-2.7
			c0.8-0.3,0.6-1.6-0.2-1.7c-1-0.1-2.3-0.4-3.5-0.9c-0.9-0.4-1.9-1-2.7-1.8c-0.5-0.4-0.9-0.8-1.4-1.1c-1.3-0.9-2.6-1.1-3.7-0.9
			c-1.2,0.2-2.2,0.8-3.1,1.7l0,0c-0.3,0.4-1.1,1.5-1.1,1.5C74.4,255.1,74.2,255.9,74.1,256.3z"/>
		<path class="st0" d="M92.2,264.7c0,1.4,0.3,2.7,1.1,3.8c0.8,1.1,2,1.8,3.7,2.1c0.4,0.1,0.8,0.1,1.3,0.1c1.1,0,2.2,0.3,3.1,0.7
			c1.2,0.5,2.3,1.2,3.1,1.9c0.6,0.5,1.7-0.3,1.4-1.1c-0.8-2-1.1-3.4-0.8-4.6c0.3-1.1,1.4-2.1,3.2-3.2c0.7-0.4,0.4-1.7-0.4-1.7
			c-1.1,0-2.3,0-3.6-0.4c-1-0.3-2-0.7-2.9-1.4c-0.5-0.4-1-0.7-1.5-0.9c-1.4-0.7-2.7-0.7-3.8-0.4c-1.1,0.4-2.1,1.1-2.8,2.2l0,0
			c-0.3,0.4-0.8,1.6-0.8,1.6C92.3,263.5,92.2,264.3,92.2,264.7z"/>
		<path class="st0" d="M111.2,270.3c0.2,1.4,0.7,2.7,1.6,3.6s2.2,1.5,4,1.5c0.4,0,0.8,0,1.3-0.1c1.1-0.1,2.2,0,3.2,0.2
			c1.3,0.3,2.4,0.8,3.3,1.4c0.7,0.4,1.6-0.5,1.2-1.3c-1.1-1.8-1.6-3.2-1.5-4.4c0.2-1.2,1-2.3,2.7-3.6c0.7-0.5,0.1-1.7-0.7-1.6
			c-1,0.2-2.3,0.3-3.6,0.1c-1-0.1-2.1-0.4-3.1-0.9c-0.6-0.3-1.1-0.5-1.6-0.7c-1.5-0.4-2.8-0.3-3.8,0.2c-1.1,0.5-1.9,1.4-2.5,2.6l0,0
			c-0.2,0.5-0.6,1.7-0.6,1.7C111.2,269.1,111.2,269.9,111.2,270.3z"/>
		<path class="st0" d="M130.9,273c0.4,1.4,1.1,2.5,2.1,3.3c1.1,0.8,2.4,1.1,4.2,0.9c0.4-0.1,0.8-0.2,1.3-0.3
			c1.1-0.3,2.1-0.4,3.2-0.3c1.3,0.1,2.5,0.5,3.5,0.9c0.8,0.3,1.5-0.8,1-1.4c-1.4-1.6-2.1-2.9-2.1-4.1s0.7-2.4,2.1-4
			c0.6-0.6-0.1-1.7-0.9-1.5c-1,0.3-2.2,0.6-3.5,0.7c-1,0-2.1-0.1-3.2-0.4c-0.6-0.2-1.2-0.3-1.7-0.4c-1.5-0.2-2.8,0.1-3.8,0.8
			c-1,0.7-1.7,1.7-2.1,2.9l0,0c-0.2,0.5-0.3,1.8-0.3,1.8C130.7,271.8,130.8,272.6,130.9,273z"/>
		<path class="st0" d="M150.8,272.6c0.6,1.3,1.4,2.4,2.6,3c1.2,0.6,2.6,0.8,4.3,0.2c0.4-0.1,0.8-0.3,1.2-0.5c1-0.5,2.1-0.7,3.1-0.8
			c1.3-0.1,2.6,0.1,3.6,0.3c0.8,0.2,1.4-1,0.8-1.5c-1.6-1.4-2.5-2.6-2.7-3.8c-0.2-1.2,0.3-2.5,1.5-4.3c0.5-0.7-0.4-1.7-1.1-1.3
			c-0.9,0.5-2.1,1-3.4,1.2c-1,0.2-2.1,0.2-3.2,0c-0.6-0.1-1.2-0.2-1.7-0.2c-1.6,0-2.7,0.5-3.6,1.3c-0.9,0.8-1.4,1.9-1.6,3.2l0,0
			c-0.1,0.5-0.1,1.8-0.1,1.8C150.4,271.5,150.6,272.3,150.8,272.6z"/>
		<path class="st0" d="M170.4,269.4c0.8,1.2,1.8,2.1,3,2.5s2.7,0.4,4.3-0.4c0.4-0.2,0.7-0.4,1.1-0.6c0.9-0.6,1.9-1,3-1.2
			c1.3-0.3,2.5-0.3,3.6-0.2c0.8,0.1,1.2-1.2,0.5-1.6c-1.8-1.1-2.8-2.2-3.2-3.3c-0.4-1.1-0.1-2.5,0.8-4.4c0.4-0.8-0.6-1.6-1.3-1.1
			c-0.8,0.6-1.9,1.3-3.2,1.7c-1,0.3-2,0.5-3.2,0.5c-0.6,0-1.2,0-1.7,0.1c-1.5,0.3-2.6,0.9-3.4,1.9c-0.7,0.9-1.1,2.1-1.1,3.4l0,0
			c0,0.5,0.2,1.8,0.2,1.8C169.8,268.3,170.2,269,170.4,269.4z"/>
		<path class="st0" d="M189.3,263.2c0.9,1.1,2.1,1.8,3.3,2.1c1.3,0.2,2.7,0,4.1-1c0.3-0.2,0.7-0.5,1-0.8c0.8-0.7,1.8-1.3,2.7-1.6
			c1.2-0.5,2.5-0.7,3.5-0.7c0.8-0.1,1-1.4,0.3-1.7c-1.9-0.9-3.1-1.7-3.7-2.8c-0.5-1.1-0.4-2.5,0.2-4.5c0.2-0.8-0.9-1.5-1.5-0.9
			c-0.7,0.7-1.7,1.5-2.9,2.2c-0.9,0.5-1.9,0.8-3,1c-0.6,0.1-1.2,0.2-1.7,0.4c-1.5,0.5-2.5,1.3-3.1,2.3s-0.8,2.3-0.6,3.5l0,0
			c0.1,0.5,0.5,1.7,0.5,1.8C188.5,262.2,189,262.9,189.3,263.2z"/>
		<path class="st0" d="M207,254.2c1.1,0.9,2.3,1.5,3.6,1.5s2.7-0.4,3.9-1.6c0.3-0.3,0.6-0.6,0.9-0.9c0.7-0.9,1.6-1.5,2.5-2
			c1.1-0.7,2.3-1,3.4-1.3c0.8-0.2,0.8-1.5,0-1.7c-2-0.6-3.3-1.2-4-2.2s-0.8-2.4-0.5-4.5c0.1-0.8-1.1-1.4-1.6-0.7
			c-0.6,0.9-1.5,1.8-2.5,2.6c-0.8,0.6-1.8,1.1-2.9,1.4c-0.6,0.2-1.2,0.4-1.6,0.6c-1.4,0.7-2.2,1.7-2.7,2.8c-0.4,1.1-0.4,2.3-0.1,3.6
			l0,0c0.1,0.5,0.7,1.7,0.7,1.7C206.2,253.4,206.7,254,207,254.2z"/>
		<path class="st0" d="M223.3,242.8c1.2,0.7,2.5,1.1,3.8,1c1.3-0.2,2.6-0.8,3.7-2.2c0.3-0.3,0.5-0.7,0.7-1.1c0.6-1,1.3-1.7,2.1-2.4
			c1-0.8,2.2-1.4,3.1-1.8c0.8-0.3,0.6-1.6-0.2-1.7c-2.1-0.3-3.5-0.7-4.3-1.6c-0.8-0.9-1.2-2.3-1.2-4.4c0-0.8-1.3-1.2-1.7-0.4
			c-0.5,0.9-1.2,2-2.1,2.9c-0.7,0.7-1.6,1.4-2.6,1.8c-0.6,0.3-1.1,0.5-1.5,0.9c-1.3,0.9-2,2-2.2,3.1c-0.3,1.2-0.1,2.4,0.5,3.5l0,0
			c0.2,0.5,1,1.5,1,1.5C222.3,242.1,223,242.5,223.3,242.8z"/>
		<path class="st0" d="M237.6,228.9c1.3,0.6,2.6,0.7,3.9,0.4c1.3-0.3,2.4-1.2,3.3-2.7c0.2-0.4,0.4-0.7,0.6-1.2
			c0.4-1,1.1-1.9,1.8-2.7c0.9-1,1.9-1.7,2.9-2.2c0.7-0.4,0.3-1.7-0.5-1.7c-2.1,0.1-3.6-0.2-4.5-0.9s-1.5-2.1-1.8-4.1
			c-0.1-0.8-1.4-1-1.7-0.2c-0.3,1-0.9,2.1-1.7,3.2c-0.6,0.8-1.4,1.6-2.3,2.2c-0.5,0.3-1,0.7-1.4,1.1c-1.1,1.1-1.7,2.3-1.7,3.4
			c-0.1,1.2,0.3,2.4,1,3.4l0,0c0.3,0.4,1.2,1.4,1.2,1.4C236.5,228.4,237.3,228.8,237.6,228.9z"/>
		<path class="st0" d="M249.8,213.2c1.4,0.4,2.7,0.3,3.9-0.2s2.2-1.6,2.8-3.2c0.2-0.4,0.3-0.8,0.4-1.2c0.3-1.1,0.8-2.1,1.3-2.9
			c0.8-1.1,1.7-2,2.5-2.6c0.7-0.5,0.1-1.7-0.7-1.6c-2.1,0.4-3.5,0.3-4.6-0.2c-1-0.6-1.8-1.8-2.4-3.8c-0.2-0.8-1.6-0.7-1.7,0.1
			c-0.2,1-0.6,2.2-1.2,3.4c-0.5,0.9-1.1,1.8-2,2.5c-0.5,0.4-0.9,0.8-1.2,1.3c-1,1.2-1.3,2.5-1.2,3.7s0.6,2.3,1.5,3.2l0,0
			c0.3,0.4,1.4,1.2,1.4,1.2C248.6,212.8,249.4,213.1,249.8,213.2z"/>
		<path class="st0" d="M259.4,195.7c1.4,0.1,2.7-0.1,3.8-0.8c1.1-0.7,1.9-1.9,2.3-3.6c0.1-0.4,0.2-0.8,0.2-1.3
			c0.1-1.1,0.4-2.1,0.9-3.1c0.6-1.2,1.4-2.2,2.1-3c0.6-0.6-0.2-1.7-1-1.4c-2,0.7-3.5,0.9-4.6,0.5s-2-1.5-2.9-3.4
			c-0.4-0.8-1.7-0.5-1.7,0.3c0,1.1-0.2,2.3-0.7,3.6c-0.3,1-0.9,1.9-1.6,2.8c-0.4,0.5-0.7,1-1,1.4c-0.8,1.4-0.9,2.6-0.7,3.8
			c0.3,1.2,1,2.2,2,3l0,0c0.4,0.3,1.5,1,1.5,1C258.2,195.5,259.1,195.7,259.4,195.7z"/>
		<path class="st0" d="M266.4,177c1.4-0.1,2.7-0.5,3.7-1.3c1-0.9,1.6-2.1,1.8-3.9c0-0.4,0-0.8,0-1.3c-0.1-1.1,0.1-2.2,0.4-3.2
			c0.4-1.3,1-2.4,1.6-3.2c0.5-0.7-0.4-1.7-1.2-1.3c-1.9,1-3.3,1.4-4.5,1.1c-1.2-0.3-2.2-1.2-3.4-3c-0.5-0.7-1.7-0.2-1.6,0.6
			c0.1,1.1,0.1,2.3-0.1,3.6c-0.2,1-0.6,2-1.1,3c-0.3,0.5-0.6,1.1-0.8,1.6c-0.5,1.5-0.5,2.8-0.1,3.9c0.4,1.1,1.3,2,2.4,2.7l0,0
			c0.4,0.3,1.6,0.7,1.7,0.7C265.2,177,266,177,266.4,177z"/>
		<path class="st0" d="M270.5,157.5c1.4-0.3,2.6-0.9,3.4-1.9s1.3-2.4,1.2-4.1c0-0.4-0.1-0.8-0.2-1.3c-0.2-1.1-0.2-2.2,0-3.2
			c0.2-1.3,0.7-2.5,1.1-3.4c0.4-0.7-0.7-1.6-1.3-1.1c-1.7,1.2-3,1.9-4.3,1.8c-1.2-0.1-2.4-0.9-3.8-2.4c-0.6-0.6-1.7,0-1.5,0.8
			c0.3,1,0.5,2.3,0.4,3.6c0,1-0.2,2.1-0.7,3.1c-0.2,0.6-0.4,1.1-0.5,1.7c-0.3,1.5-0.1,2.8,0.5,3.8s1.6,1.8,2.7,2.3l0,0
			c0.5,0.2,1.7,0.5,1.8,0.5C269.3,157.7,270.1,157.6,270.5,157.5z"/>
		<path class="st0" d="M271.7,137.6c1.3-0.5,2.4-1.3,3.1-2.4c0.7-1.1,0.9-2.5,0.6-4.3c-0.1-0.4-0.2-0.8-0.4-1.2
			c-0.4-1-0.5-2.1-0.5-3.2c0-1.3,0.3-2.6,0.6-3.6c0.3-0.8-0.9-1.5-1.5-0.9c-1.5,1.5-2.7,2.3-3.9,2.4c-1.2,0.1-2.5-0.5-4.1-1.8
			c-0.7-0.5-1.7,0.3-1.4,1c0.4,1,0.8,2.2,0.9,3.5c0.1,1,0.1,2.1-0.2,3.2c-0.2,0.6-0.2,1.2-0.3,1.7c-0.1,1.6,0.3,2.8,1.1,3.7
			c0.7,0.9,1.8,1.5,3.1,1.8l0,0c0.5,0.1,1.8,0.2,1.8,0.2C270.5,137.9,271.3,137.7,271.7,137.6z"/>
		<path class="st0" d="M269.9,117.7c1.2-0.7,2.2-1.6,2.7-2.8c0.5-1.2,0.6-2.6-0.1-4.3c-0.1-0.4-0.3-0.8-0.5-1.2c-0.5-1-0.8-2-1-3.1
			c-0.2-1.3-0.1-2.6,0.1-3.6c0.1-0.8-1.1-1.3-1.6-0.6c-1.3,1.7-2.4,2.7-3.5,3c-1.2,0.3-2.5-0.1-4.3-1.2c-0.7-0.4-1.7,0.5-1.2,1.2
			c0.6,0.9,1.1,2,1.5,3.3c0.3,1,0.4,2.1,0.3,3.2c-0.1,0.6-0.1,1.2,0,1.8c0.1,1.6,0.7,2.7,1.6,3.5s2,1.2,3.3,1.4l0,0
			c0.5,0,1.8-0.1,1.8-0.1C268.8,118.2,269.6,117.9,269.9,117.7z"/>
		<path class="st0" d="M265.2,98.3c1.1-0.9,2-1.9,2.3-3.2c0.3-1.3,0.2-2.7-0.7-4.2c-0.2-0.4-0.4-0.7-0.7-1.1
			c-0.7-0.9-1.1-1.9-1.4-2.9c-0.4-1.3-0.5-2.5-0.5-3.6c0-0.8-1.3-1.1-1.7-0.4c-1,1.9-1.9,3-3.1,3.5c-1.1,0.4-2.5,0.3-4.5-0.5
			c-0.8-0.3-1.6,0.8-1,1.4c0.7,0.8,1.4,1.8,1.9,3.1c0.4,0.9,0.7,2,0.7,3.1c0,0.6,0.1,1.2,0.2,1.7c0.4,1.5,1.1,2.6,2.1,3.2
			c1,0.7,2.2,0.9,3.5,0.9l0,0c0.5,0,1.8-0.3,1.8-0.3C264.2,99,264.9,98.5,265.2,98.3z"/>
		<path class="st0" d="M257.6,79.8c1-1,1.7-2.2,1.8-3.5c0.1-1.3-0.2-2.7-1.3-4.1c-0.3-0.3-0.5-0.6-0.9-1c-0.8-0.8-1.4-1.7-1.8-2.6
			c-0.6-1.2-0.9-2.4-1-3.5c-0.1-0.8-1.4-0.9-1.7-0.1c-0.7,2-1.5,3.3-2.5,3.9s-2.4,0.6-4.5,0.2c-0.8-0.2-1.4,1-0.8,1.5
			c0.8,0.7,1.7,1.6,2.4,2.7c0.5,0.9,1,1.9,1.2,3c0.1,0.6,0.3,1.2,0.5,1.7c0.6,1.4,1.5,2.4,2.6,2.9s2.3,0.6,3.5,0.3l0,0
			c0.5-0.1,1.7-0.6,1.7-0.6C256.8,80.7,257.4,80.1,257.6,79.8z"/>
		<path class="st0" d="M247.4,62.7c0.8-1.2,1.3-2.4,1.3-3.7c-0.1-1.3-0.6-2.6-1.9-3.8c-0.3-0.3-0.6-0.6-1-0.8
			c-0.9-0.6-1.6-1.5-2.2-2.3c-0.7-1.1-1.2-2.3-1.5-3.3c-0.2-0.8-1.6-0.7-1.7,0.1c-0.4,2.1-1,3.4-1.9,4.2s-2.3,1-4.4,0.8
			c-0.8-0.1-1.3,1.2-0.6,1.6c0.9,0.6,1.9,1.3,2.7,2.3c0.7,0.8,1.2,1.7,1.6,2.8c0.2,0.6,0.5,1.1,0.7,1.6c0.8,1.3,1.8,2.1,3,2.5
			c1.1,0.3,2.4,0.2,3.6-0.2l0,0c0.5-0.2,1.6-0.8,1.6-0.9C246.7,63.7,247.2,63,247.4,62.7z"/>
		<path class="st0" d="M234.8,47.3c0.7-1.3,0.9-2.6,0.7-3.9c-0.2-1.3-1-2.5-2.5-3.5c-0.3-0.2-0.7-0.5-1.1-0.7c-1-0.5-1.8-1.2-2.5-2
			c-0.9-1-1.5-2.1-2-3c-0.4-0.8-1.6-0.5-1.7,0.4c-0.1,2.1-0.5,3.6-1.3,4.5s-2.1,1.3-4.2,1.5c-0.8,0.1-1.1,1.4-0.3,1.7
			c1,0.4,2.1,1,3.1,1.9c0.8,0.7,1.5,1.5,2,2.5c0.3,0.6,0.6,1,1,1.5c1,1.2,2.1,1.8,3.3,2s2.4-0.1,3.5-0.7l0,0
			c0.4-0.2,1.5-1.1,1.5-1.1C234.2,48.3,234.6,47.6,234.8,47.3z"/>
		<path class="st0" d="M220.1,34c0.5-1.3,0.5-2.7,0.1-3.9c-0.4-1.2-1.4-2.3-3-3.1c-0.4-0.2-0.8-0.3-1.2-0.5c-1.1-0.3-2-0.9-2.8-1.6
			c-1-0.8-1.8-1.8-2.4-2.7c-0.5-0.7-1.7-0.2-1.6,0.6c0.2,2.1,0.1,3.6-0.6,4.6c-0.7,1-1.9,1.6-4,2.1c-0.8,0.2-0.9,1.5-0.1,1.7
			c1,0.3,2.2,0.7,3.3,1.4c0.9,0.6,1.7,1.3,2.4,2.2c0.4,0.5,0.8,0.9,1.2,1.3c1.2,1,2.4,1.5,3.6,1.5c1.2,0,2.3-0.5,3.3-1.3l0,0
			c0.4-0.3,1.3-1.3,1.3-1.3C219.6,35.1,219.9,34.3,220.1,34z"/>
		<path class="st0" d="M203.5,23c0.3-1.4,0.1-2.8-0.5-3.9c-0.6-1.2-1.7-2.1-3.4-2.6c-0.4-0.1-0.8-0.2-1.2-0.3
			c-1.1-0.2-2.1-0.6-3-1.1c-1.1-0.7-2.1-1.5-2.8-2.3c-0.6-0.6-1.7,0-1.5,0.8c0.5,2.1,0.6,3.5,0.1,4.6s-1.7,1.9-3.6,2.7
			c-0.8,0.3-0.6,1.6,0.2,1.7c1,0.1,2.3,0.4,3.5,0.9c0.9,0.4,1.9,1,2.7,1.8c0.5,0.4,0.9,0.8,1.4,1.1c1.3,0.9,2.6,1.1,3.7,0.9
			c1.2-0.2,2.2-0.8,3.1-1.7l0,0c0.3-0.4,1.1-1.5,1.1-1.5C203.2,24.1,203.4,23.3,203.5,23z"/>
		<path class="st0" d="M185.4,14.6c0-1.4-0.3-2.7-1.1-3.8s-2-1.8-3.7-2.1c-0.4-0.1-0.8-0.1-1.3-0.1c-1.1,0-2.2-0.3-3.1-0.7
			c-1.2-0.5-2.3-1.2-3.1-1.9c-0.6-0.5-1.7,0.3-1.4,1.1c0.8,2,1.1,3.4,0.8,4.6c-0.3,1.1-1.4,2.1-3.2,3.2c-0.7,0.4-0.4,1.7,0.4,1.7
			c1.1,0,2.3,0,3.6,0.4c1,0.3,2,0.7,2.9,1.4c0.5,0.4,1,0.7,1.5,0.9c1.4,0.7,2.7,0.7,3.8,0.4c1.1-0.4,2.1-1.1,2.8-2.2l0,0
			c0.3-0.4,0.8-1.6,0.8-1.6C185.3,15.8,185.4,15,185.4,14.6z"/>
		<path class="st0" d="M166.4,9c-0.2-1.4-0.7-2.7-1.6-3.6c-0.9-0.9-2.2-1.5-4-1.5c-0.4,0-0.8,0-1.3,0.1c-1.1,0.1-2.2,0-3.2-0.2
			C155,3.5,153.9,3,153,2.4c-0.7-0.4-1.6,0.5-1.2,1.3c1.1,1.8,1.6,3.2,1.5,4.4c-0.2,1.2-1,2.3-2.7,3.6c-0.7,0.5-0.1,1.7,0.7,1.6
			c1-0.2,2.3-0.3,3.6-0.1c1,0.1,2.1,0.4,3.1,0.9c0.6,0.3,1.1,0.5,1.6,0.7c1.5,0.4,2.8,0.3,3.8-0.2c1.1-0.5,1.9-1.4,2.5-2.6l0,0
			c0.2-0.5,0.6-1.7,0.6-1.7C166.4,10.2,166.4,9.4,166.4,9z"/>
		<path class="st0" d="M139,5.7c-73.5,0-133,60-133,134s59.6,134,133,134c73.5,0,133-60,133-134S212.5,5.7,139,5.7z M139.1,271.4
			C67,271.4,8.5,212.5,8.5,139.8C8.5,67.2,67,8.3,139.1,8.3s130.6,58.9,130.6,131.6C269.7,212.5,211.2,271.4,139.1,271.4z"/>
	</g>
	<path class="st1" d="M260.5,153.5l-2.2,2.6c0,0-46.6,4.6-72.9,14.5c-22.2,8.4-35.4,22.6-35.4,22.6l-35.2,2.6c0,0,3.2-6.2,11.2-12.3
		s31.7-17.7,31.7-17.7s-20.6,7.3-33.3,14.8s-18.1,14.2-18.1,14.2L89.4,196l-21.6,0.7c0,0,7-7.6,15-12.7c8-5,31-15.9,31-15.9
		S83.9,179.8,74.5,185s-16.1,12-16.1,12l-3.2,2l-14.7-3.5c0,0,4.1-11.7,23.7-18.9c15.9-5.9,24.6-6.7,24.6-6.7l0.3-4.2l86.5-3.1v-9.2
		L260.5,153.5z"/>
	<path class="st0" d="M181.5,160.8l-92.9,2.9l-3.1-93.5l7.9-1.8l3.4,89.1l14.7-1l-4.7-90.1l4.2-0.7l4.9,90.8l27.9-1l-3.6-94
		l10.2-0.7l3.7,94.6l15-0.9l-3.6-96.7l11.9-1.3L181.5,160.8z M170.8,58.5l-4,0.7l3.5,96.3l-21.6,0.9L144.8,62l-3.1,0.2l3.6,94.2
		l-30.3,1.2l-5.2-90.9l-1.9,0.7l4.5,90l-19.7,1.1L88.9,70l-2.5,0.3l3.6,91.9l83.8-3.1L170.8,58.5z"/>
	<g>
		<path class="st1" d="M86.9,47.6c-1.4,0-2.5,1.2-2.5,2.6c0,1.4,1.1,2.6,2.5,2.6s2.5-1.2,2.5-2.6S88.3,47.6,86.9,47.6z M86.6,51.5
			c-0.8,0-1.4-0.6-1.4-1.4c0-0.8,0.6-1.4,1.4-1.4s1.4,0.6,1.4,1.4C88,50.8,87.4,51.5,86.6,51.5z"/>
		<path class="st1" d="M85.8,51.8c1-0.1,1.9-0.2,2.9-0.3c-0.1,1.4,0.7,2.9,1.9,4.2c-2,0.2-3.9,0.7-5.9,0.8
			C85.5,55.3,85.9,53.8,85.8,51.8"/>
	</g>
	<g>
		<path class="st1" d="M107.1,44.2c-1.4,0-2.5,1.2-2.5,2.6c0,1.4,1.1,2.6,2.5,2.6s2.5-1.2,2.5-2.6C109.6,45.3,108.5,44.2,107.1,44.2
			z M106.8,48c-0.8,0-1.4-0.6-1.4-1.4c0-0.8,0.6-1.4,1.4-1.4s1.4,0.6,1.4,1.4C108.2,47.4,107.6,48,106.8,48z"/>
		<path class="st1" d="M106,48.4c1-0.1,1.9-0.2,2.9-0.3c-0.1,1.4,0.7,2.9,1.9,4.2c-2,0.2-3.9,0.7-5.9,0.8
			C105.7,51.9,106.1,50.3,106,48.4"/>
	</g>
	<g>
		<path class="st1" d="M144.5,38.7c-1.4,0-2.5,1.2-2.5,2.6c0,1.4,1.1,2.6,2.5,2.6s2.5-1.2,2.5-2.6S145.9,38.7,144.5,38.7z
			 M144.2,42.6c-0.8,0-1.4-0.6-1.4-1.4c0-0.8,0.6-1.4,1.4-1.4c0.8,0,1.4,0.6,1.4,1.4C145.6,42,145,42.6,144.2,42.6z"/>
		<path class="st1" d="M143.4,42.9c1-0.1,1.9-0.2,2.9-0.3c-0.1,1.4,0.7,2.9,1.9,4.2c-2,0.2-3.9,0.7-5.9,0.8
			C143.1,46.4,143.5,44.9,143.4,42.9"/>
	</g>
	<g>
		<path class="st1" d="M168.9,35.4c-1.4,0-2.5,1.2-2.5,2.6c0,1.4,1.1,2.6,2.5,2.6s2.5-1.2,2.5-2.6C171.4,36.6,170.3,35.4,168.9,35.4
			z M168.6,39.2c-0.8,0-1.4-0.6-1.4-1.4c0-0.8,0.6-1.4,1.4-1.4c0.8,0,1.4,0.6,1.4,1.4C170,38.6,169.4,39.2,168.6,39.2z"/>
		<path class="st1" d="M167.8,39.6c1-0.1,1.9-0.2,2.9-0.3c-0.1,1.4,0.7,2.9,1.9,4.2c-2,0.2-3.9,0.7-5.9,0.8
			C167.5,43.1,167.9,41.6,167.8,39.6"/>
	</g>
	<path class="st0" d="M175.8,45c-0.1-0.6-0.4-1.1-0.8-1.5c-0.4-0.4-1-0.7-1.6-0.7c-0.1,0-0.2,0-0.3,0l-88,13
		c-0.7,0.1-1.3,0.4-1.8,0.8c-0.4,0.4-0.7,1-0.7,1.7c0,0.1,0,0.2,0,0.4c0.1,0.6,0.4,1.1,0.8,1.5l0,0c0.4,0.4,1,0.7,1.6,0.7
		c0.1,0,0.2,0,0.3,0l88-13c0.7-0.1,1.3-0.4,1.8-0.8c0.5-0.4,0.7-1,0.7-1.7C175.8,45.3,175.8,45.1,175.8,45z M173.5,46.4
		c-0.4,0.3-1,0.5-1.6,0.6L86.3,59.6c-0.1,0-0.2,0-0.3,0c-0.6,0-1.1-0.1-1.5-0.3l0,0c-0.4-0.2-0.7-0.5-0.7-0.8c0-0.1,0-0.1,0-0.2
		c0-0.4,0.2-0.7,0.6-1s1-0.5,1.6-0.6L171.7,44c0.1,0,0.2,0,0.3,0c0.6,0,1.1,0.1,1.5,0.3s0.6,0.5,0.7,0.8c0,0.1,0,0.1,0,0.2
		C174.2,45.8,173.9,46.1,173.5,46.4z"/>
	<path class="st1" d="M116.4,90.6c-0.1-7.5,4.3-16.9,11.2-17.7c7.2-0.8,13.5,15.1,14,22.6c0-1.8-0.2-7.5-0.2-7.5l-0.8-25.1l-30,4.7
		l5.3,89.9l3.9,0.2L116.4,90.6z M133.7,69.4c0.8-1.1,5.2-1.1,5.2-1.1s0.8,3.2-0.6,5c-1.4,1.8-3.4,1.5-4.3,0.7
		C132.9,73.2,132.9,70.4,133.7,69.4z M127.4,67.3c0.5-0.7,3.5-0.8,3.5-0.8s0.5,2.2-0.4,3.4c-0.9,1.2-2.2,1-2.9,0.5
		C126.9,69.9,126.8,68,127.4,67.3z M120.8,67.6c0,0,3,0,3.5,0.7c0.6,0.7,0.5,2.6-0.1,3.2c-0.7,0.5-2,0.8-2.9-0.4
		C120.3,69.8,120.8,67.6,120.8,67.6z M113.8,71c0,0,3.9,0,4.6,0.9s0.7,3.4-0.1,4.1c-0.9,0.7-2.6,1-3.9-0.6
		C113.2,73.9,113.8,71,113.8,71z"/>
	<path class="st1" d="M175.8,58.8L87.4,71.9c-1,0.2-2-0.5-2.1-1.4l0,0c-0.1-0.9,0.6-1.8,1.6-2l88.4-13.2c1-0.2,2,0.1,2.1,1.4
		C177.6,58,176.8,58.6,175.8,58.8z"/>
	<g>
		<polygon class="st0" points="147.6,83.2 167.1,81.3 166.9,79.4 147.5,81.3 		"/>
		<polygon class="st0" points="147.5,102 167.2,100.2 167,98.3 147.4,100.1 		"/>
		<polygon class="st0" points="108.2,84.2 92,85.6 92.1,87.5 108.3,86.2 		"/>
		<polygon class="st0" points="148.3,120.6 168.5,119.3 168.4,117.3 148.2,118.6 		"/>
		<polygon class="st0" points="150.5,137.2 150.6,139.1 169,138.1 168.9,136.1 		"/>
		<polygon class="st0" points="111.2,139.3 94.1,140 94.2,142 111.2,141.2 		"/>
		<polygon class="st0" points="109.8,120.7 92.4,121.6 92.6,123.5 109.9,122.6 		"/>
		<polygon class="st0" points="109.2,102.9 93,104.3 93.1,106.2 109.3,104.9 		"/>
	</g>
	<polygon class="st0" points="106.9,85.7 91.4,71.7 93.1,69.8 108.7,83.8 	"/>
	<polygon class="st0" points="107.7,104.2 92.1,88.3 94,86.5 109.6,102.4 	"/>
	<polygon class="st0" points="108.7,121.8 93.7,107.1 95.5,105.2 110.5,120 	"/>
	<polygon class="st0" points="109.6,140.3 94.6,124.1 96.5,122.3 111.6,138.5 	"/>
	<polygon class="st0" points="110.5,157.4 95.7,142.1 97.6,140.4 112.4,155.6 	"/>
	<polygon class="st0" points="165.1,81.2 149.3,62.5 151.3,60.9 167.1,79.5 	"/>
	<polygon class="st0" points="166.2,99.5 150.3,83.7 152.2,81.9 168.1,97.7 	"/>
	<polygon class="st0" points="166.7,118.5 151,102.5 152.9,100.7 168.6,116.7 	"/>
	<polygon class="st0" points="167.5,137.3 151.6,120.9 153.5,119.1 169.4,135.5 	"/>
	<polygon class="st0" points="168.2,155.5 152.3,139.9 154.1,138.1 170.1,153.7 	"/>
	<polygon class="st0" points="107.9,69.2 94.2,86.4 92.2,84.8 105.9,67.6 	"/>
	<polygon class="st0" points="108.9,87 95.5,105.1 93.4,103.5 106.9,85.4 	"/>
	<polygon class="st0" points="109.6,105.6 96.4,122.2 94.4,120.6 107.6,103.9 	"/>
	<polygon class="st0" points="110.5,123.1 97.2,140.8 95.1,139.2 108.4,121.5 	"/>
	<polygon class="st0" points="111.5,141.7 97.4,158.2 95.4,156.5 109.6,139.9 	"/>
	<polygon class="st0" points="166.8,61 152,81.9 150,80.3 164.7,59.4 	"/>
	<polygon class="st0" points="167.4,81.9 152.6,100.8 150.5,99.1 165.4,80.3 	"/>
	<polygon class="st0" points="168.2,100.8 153.4,119.4 151.4,117.8 166.1,99.1 	"/>
	<polygon class="st0" points="168.9,119.8 154.1,138.1 152.1,136.5 166.8,118.1 	"/>
	<polygon class="st0" points="169.7,138.6 155.1,156.1 153.1,154.5 167.7,137 	"/>
	<path class="st1" d="M178.5,50.2c-0.4-2-2.2-3.5-4-3.2L85.7,60.1c-1.8,0.3-3,2.2-2.6,4.2c0.4,2,2.2,3.5,4,3.2l88.8-13.1
		C177.8,54.1,178.9,52.2,178.5,50.2z"/>
	<g>
		<polygon class="st0" points="238.1,153.6 184,155.3 182.2,100.8 186.8,99.8 188.8,151.6 197.3,151.1 194.6,98.6 197.1,98.2 
			199.9,151.1 216.1,150.5 214,95.8 220,95.4 222.2,150.4 230.9,149.9 228.8,93.6 235.7,92.9 		"/>
		<g>
			<path class="st1" d="M183,87.7c0.8,0,1.5,0.7,1.5,1.5s-0.7,1.5-1.5,1.5s-1.5-0.7-1.5-1.5C181.6,88.4,182.2,87.7,183,87.7"/>
			<path class="st1" d="M182.4,90.2c0.6-0.1,1.1-0.1,1.7-0.2c0,0.8,0.4,1.7,1.1,2.4c-1.1,0.1-2.3,0.4-3.4,0.5
				C182.3,92.2,182.5,91.3,182.4,90.2"/>
		</g>
		<g>
			<path class="st1" d="M194.8,85.7c0.8,0,1.5,0.7,1.5,1.5s-0.7,1.5-1.5,1.5s-1.5-0.7-1.5-1.5C193.3,86.4,194,85.7,194.8,85.7"/>
			<path class="st1" d="M194.1,88.2c0.6-0.1,1.1-0.1,1.7-0.2c0,0.8,0.4,1.7,1.1,2.4c-1.1,0.1-2.3,0.4-3.4,0.5
				C194,90.2,194.2,89.3,194.1,88.2"/>
		</g>
		<g>
			<path class="st1" d="M216.5,82.5c0.8,0,1.5,0.7,1.5,1.5s-0.7,1.5-1.5,1.5S215,84.8,215,84C215.1,83.2,215.7,82.5,216.5,82.5"/>
			<path class="st1" d="M215.9,85c0.6-0.1,1.1-0.1,1.7-0.2c0,0.8,0.4,1.7,1.1,2.4c-1.1,0.1-2.3,0.4-3.4,0.5
				C215.8,87,216,86.1,215.9,85"/>
		</g>
		<g>
			<path class="st1" d="M230.7,80.6c0.8,0,1.5,0.7,1.5,1.5s-0.7,1.5-1.5,1.5s-1.5-0.7-1.5-1.5C229.3,81.3,229.9,80.6,230.7,80.6"/>
			<path class="st1" d="M230.1,83.1c0.6-0.1,1.1-0.1,1.7-0.2c0,0.8,0.4,1.7,1.1,2.4c-1.1,0.1-2.3,0.4-3.4,0.5
				C230,85.1,230.2,84.2,230.1,83.1"/>
		</g>
		<path class="st1" d="M235,92.7l-52.2,7.6c-1.1,0.2-2.1-0.9-2.3-2.3l0,0c-0.2-1.4,0.5-2.7,1.6-2.8l52.2-7.6
			c1.1-0.2,2.1,0.9,2.3,2.3l0,0C236.8,91.2,236.1,92.5,235,92.7z"/>
		<path class="st0" d="M234.7,86.2c0-0.3-0.2-0.7-0.4-0.9c-0.2-0.2-0.6-0.4-0.9-0.4c-0.1,0-0.1,0-0.2,0L182,92.5
			c-0.4,0.1-0.8,0.2-1,0.5c-0.3,0.3-0.4,0.6-0.4,1c0,0.1,0,0.1,0,0.2c0,0.3,0.2,0.7,0.4,0.9l0,0c0.2,0.2,0.6,0.4,0.9,0.4
			c0.1,0,0.1,0,0.2,0l51.2-7.6c0.4-0.1,0.8-0.2,1-0.5c0.3-0.3,0.4-0.6,0.4-1C234.8,86.3,234.7,86.3,234.7,86.2z"/>
		<path class="st1" d="M200.2,112.7c-0.1-4.4,2.5-9.8,6.5-10.3c4.2-0.5,7.8,8.8,8.1,13.1c0-1.1-0.1-4.4-0.1-4.4l-0.4-14.6l-17.4,2.7
			l3.1,52.3l2.3,0.1L200.2,112.7z M209.5,99.3c0.5-0.7,3.3-0.7,3.3-0.7s0.5,2.1-0.4,3.2c-0.9,1.2-2.1,1-2.8,0.5
			C209,101.8,209,100,209.5,99.3z M199,100.3c0,0,2.8,0,3.3,0.6c0.5,0.7,0.5,2.4-0.1,2.9s-1.9,0.7-2.8-0.4
			C198.5,102.3,199,100.3,199,100.3z"/>
		<path class="st1" d="M234.8,94.2l-51.4,7.6c-0.6,0.1-1.2-0.3-1.2-0.8l0,0c-0.1-0.5,0.4-1,1-1.1l51.4-7.6c0.6-0.1,1.2,0.1,1.2,0.8
			S235.4,94.1,234.8,94.2z"/>
		<g>
			<polygon class="st0" points="218.4,108.4 229.7,107.3 229.6,106.2 218.3,107.3 			"/>
			<polygon class="st0" points="218.3,119.3 229.7,118.3 229.7,117.2 218.3,118.2 			"/>
			<polygon class="st0" points="195.4,109 186,109.8 186.1,110.9 195.5,110.1 			"/>
			<polygon class="st0" points="218.8,130.1 230.5,129.4 230.5,128.3 218.7,129 			"/>
			<polygon class="st0" points="220.1,139.8 220.1,141 230.8,140.3 230.8,139.2 			"/>
			<polygon class="st0" points="197.2,141 187.3,141.5 187.3,142.6 197.2,142.1 			"/>
			<polygon class="st0" points="196.4,130.2 186.3,130.8 186.3,131.9 196.4,131.4 			"/>
			<polygon class="st0" points="196,119.9 186.6,120.7 186.7,121.8 196.1,121 			"/>
		</g>
		<polygon class="st0" points="194.7,109.9 185.6,101.7 186.7,100.6 195.7,108.8 		"/>
		<polygon class="st0" points="195.1,120.7 186.1,111.4 187.2,110.3 196.2,119.6 		"/>
		<polygon class="st0" points="195.7,130.9 187,122.3 188.1,121.2 196.8,129.8 		"/>
		<polygon class="st0" points="196.3,141.6 187.5,132.2 188.6,131.2 197.4,140.6 		"/>
		<polygon class="st0" points="196.8,151.6 188.2,142.7 189.3,141.7 197.9,150.6 		"/>
		<polygon class="st0" points="228.5,107.2 219.3,96.4 220.5,95.4 229.7,106.3 		"/>
		<polygon class="st0" points="229.2,117.9 219.9,108.7 221,107.6 230.3,116.9 		"/>
		<polygon class="st0" points="229.5,129 220.3,119.7 221.4,118.6 230.6,127.9 		"/>
		<polygon class="st0" points="230,139.9 220.7,130.3 221.8,129.3 231.1,138.9 		"/>
		<polygon class="st0" points="230.4,150.5 221.1,141.4 222.2,140.3 231.4,149.4 		"/>
		<polygon class="st0" points="195.3,100.3 187.3,110.3 186.2,109.3 194.1,99.3 		"/>
		<polygon class="st0" points="195.9,110.6 188,121.2 186.8,120.2 194.7,109.7 		"/>
		<polygon class="st0" points="196.3,121.4 188.6,131.1 187.4,130.1 195.1,120.5 		"/>
		<polygon class="st0" points="196.8,131.6 189,141.9 187.8,141 195.6,130.7 		"/>
		<polygon class="st0" points="197.4,142.4 189.1,152 188,151 196.2,141.4 		"/>
		<polygon class="st0" points="229.5,95.5 220.9,107.7 219.7,106.7 228.3,94.6 		"/>
		<polygon class="st0" points="229.9,107.7 221.2,118.6 220.1,117.7 228.7,106.7 		"/>
		<polygon class="st0" points="230.3,118.6 221.7,129.5 220.6,128.5 229.1,117.7 		"/>
		<polygon class="st0" points="230.7,129.7 222.1,140.4 221,139.4 229.6,128.7 		"/>
		<polygon class="st0" points="231.2,140.6 222.7,150.9 221.5,149.9 230,139.7 		"/>
	</g>
	<path class="st0" d="M115.5,86.3l-0.6,15c0,0,7.3,20.9,12.8,33.2c5.6,12.4,17,21.1,17,21.1v-2.7c0,0-9.2-9.2-14.6-21.2
		C122.7,115.3,115.3,86.1,115.5,86.3z"/>
	<path class="st0" d="M198.7,115.3c0,0,3.8,9.6,7.1,17.7c3.4,8.2,12.6,17.4,12.6,17.4l0.3-1.4c0,0-8.9-11.4-12.1-19.3
		c-3.3-8-7-20.5-7-20.5L198.7,115.3z"/>
	<path class="st0" d="M236,101.4c0.8,4.3,3.2,15.8,6,27.1c2.8,11.1,6.1,22,8.9,25.2v2.2c-0.9,1.2-1.3,0.7-1.8,0.1
		c-3.1-3.6-6.6-15-9.5-26.6c-2.9-11.4-5.2-23-6-27.3c-0.1-0.8-0.3-1.5,0.9-2C235.7,99.9,235.8,100.7,236,101.4"/>
	<path class="st0" d="M32.5,201.1h-10c0,0,29.9-22.3,40.7-52.5C74.3,117.6,85,63.1,85,63.1l2.2,0.9c0,0-8.4,56.1-20.5,90.3
		C53.2,192.5,32.5,201.1,32.5,201.1z"/>
	<path class="st0" d="M72,179.1l-7.6-0.2c0,0,5.6-1.2,12.4-20.2c7-19.5,10.6-53.3,10.6-53.3l0.6,6.7c0,0-1,28.5-8.7,50
		C70.7,186,72,179.1,72,179.1z"/>
	<path class="st0" d="M183.1,96.9l5.4-0.3c0,0-2.4-0.8-6.6-12.8c-4.3-12.3-6-27.8-6-27.8l-1.5,1.6c0,0,0.8,14.4,5.5,28
		C185.1,100.7,183.1,96.9,183.1,96.9z"/>
	<path class="st1" d="M34.8,201c14,32.4,57.1,62.5,106.4,62.5c54.8,0,114.2-51,119.5-110.1c0,0-33.8,8-52.7,15.5
		c-29.7,11.7-45.5,31.3-45.5,31.3l-51.3,0.5C111.2,200.7,34.7,200.8,34.8,201z"/>
	<path class="st2" d="M42.4,195.9h9.9c1.6,0,2.9,1.2,2.9,2.7v15c0,1.5-1.3,2.7-2.9,2.7h-9.9c-1.6,0-2.9-1.2-2.9-2.7v-15
		C39.4,197.1,40.8,195.9,42.4,195.9"/>
	<path class="st0" d="M42.8,196.2c-1,0-1.8,0.9-1.8,2v16c0,1.1,0.8,2,1.8,2h8.5c1,0,1.8-0.9,1.8-2v-16c0-1.1-0.8-2-1.8-2H42.8
		 M42.2,195h9.2c2,0,3.6,1.6,3.6,3.6v15c0,2-1.6,3.6-3.6,3.6h-9.2c-2,0-3.6-1.6-3.6-3.6v-15C38.6,196.7,40.2,195,42.2,195z"/>
	<path class="st2" d="M56.1,196.8h9c1.2,0,2.3,1,2.3,2.2v13.9c0,1.2-1,2.2-2.3,2.2h-9c-1.2,0-2.3-1-2.3-2.2V199
		C53.8,197.8,54.8,196.8,56.1,196.8"/>
	<path class="st0" d="M57.9,197.2c-0.6,0-1.1,0.7-1.1,1.5v15.1c0,0.8,0.5,1.5,1.1,1.5h7c0.6,0,1.1-0.7,1.1-1.5v-15.1
		c0-0.8-0.5-1.5-1.1-1.5H57.9 M56.7,195.4h8.6c1.6,0,3,1.4,3,3.2V213c0,1.8-1.3,3.2-3,3.2h-8.6c-1.6,0-3-1.4-3-3.2v-14.3
		C53.7,196.8,55,195.4,56.7,195.4z"/>
	<path class="st2" d="M26.6,193.6c1.5-0.4,2.8,0.5,4.5,1.2c1.6,0.7,3.8,0.1,5.9,0c0,7.7,0,15.4,0,23.1c-1.6,0-3.4-0.7-4.9,0
		c-1.6,0.7-2.9,2.1-4.8,2.3C27,211.3,26.8,202.4,26.6,193.6"/>
	<path class="st0" d="M28.3,195.1c0.1,3.7,0.2,7.4,0.3,11.1c0.1,4.2,0.2,8.4,0.3,12.5c0.6-0.2,1.2-0.6,1.8-1l0,0
		c0.5-0.3,1-0.7,1.6-0.9c1.1-0.5,2.2-0.4,3.3-0.2c0.2,0,0.4,0.1,0.6,0.1v-20.3c-0.2,0-0.4,0-0.7,0.1c-1.5,0.2-2.9,0.3-4.2-0.2l0,0
		c-0.4-0.2-0.7-0.3-1.1-0.5C29.6,195.5,28.9,195.2,28.3,195.1 M27.3,193.5c1.3-0.4,2.4,0.1,3.6,0.7c0.3,0.2,0.6,0.3,1,0.5l0,0
		c0.9,0.4,2.2,0.2,3.5,0.1c0.6-0.1,1.1-0.1,1.6-0.2c0.4,0,0.8,0.4,0.8,0.9v22.2c0,0.5-0.4,0.9-0.8,0.9c-0.5,0-1.1-0.1-1.6-0.2
		c-0.9-0.1-1.8-0.3-2.6,0.1c-0.4,0.2-0.9,0.5-1.4,0.8l0,0c-1,0.7-2,1.3-3.3,1.4c-0.4,0-0.8-0.4-0.8-0.9c-0.1-4.5-0.2-9.1-0.3-13.6
		c-0.1-4-0.2-8-0.3-12C26.7,194,27,193.5,27.3,193.5z"/>
	<path class="st2" d="M37.5,192.2c1.2,0,2.2,1,2.2,2.2l0.4,22.3c0,1.2-1,2.2-2.2,2.2s-2.2-1-2.2-2.2l-0.4-22.3
		C35.3,193.2,36.3,192.2,37.5,192.2"/>
	<path class="st0" d="M38.9,193.4L38.9,193.4L38.9,193.4L38.9,193.4 M37.8,193c-0.4,0-0.8,0.2-1.1,0.4s-0.4,0.6-0.4,1l0.4,22.3
		c0,0.4,0.2,0.8,0.5,1l0,0c0.3,0.2,0.6,0.4,1.1,0.4c0.4,0,0.8-0.2,1.1-0.4c0.3-0.3,0.4-0.6,0.4-1l-0.4-22.3c0-0.4-0.2-0.7-0.5-1
		C38.6,193.2,38.2,193,37.8,193z M37.8,191.3c1,0,1.9,0.3,2.6,0.9l0,0c0.7,0.6,1.1,1.3,1.1,2.2l0.5,22.3c0,0.9-0.4,1.6-1.1,2.2
		c-0.7,0.6-1.6,0.9-2.6,0.9s-1.9-0.4-2.6-0.9l0,0l0,0l0,0c-0.7-0.6-1.1-1.3-1.1-2.2l-0.5-22.3c0-0.9,0.4-1.6,1.1-2.2
		C35.9,191.7,36.8,191.3,37.8,191.3z"/>
	<path class="st2" d="M24.5,192.2c0.7,0,1.5,0,2.2,0c0.2,10,0.5,20.3,0.7,30.3c-0.7,0-1.4,0-2.1,0c-1.3,0-2.4-1-2.4-2.2
		c-0.8-8.6-1.1-17.2-0.9-25.8C22.1,193.2,23.2,192.2,24.5,192.2"/>
	<path class="st0" d="M24.4,192.8c-0.5,0-0.9,0.2-1.2,0.4c-0.3,0.3-0.5,0.6-0.5,1c-0.1,4.4-0.1,8.7,0,13c0.2,4.3,0.5,8.7,1,13v0.1
		c0,0.4,0.2,0.8,0.5,1c0.3,0.3,0.7,0.4,1.2,0.4l2.3-0.1c-0.1-4.9-0.3-9.9-0.4-14.9c-0.1-4.7-0.3-9.5-0.4-14.1L24.4,192.8
		 M24.5,191.4h2.2c0.4,0,1.9,0.4,1.9,0.9c0.1,4.8,0.2,9.8,0.4,14.7c0.1,5.2,0.2,10.4,0.4,15.6c0,0.4-1.4,0.8-1.9,0.8h-2.1
		c-0.9,0-1.7-0.3-2.3-0.9c-0.6-0.6-1-1.3-1-2.2l0,0c-0.4-4.3-0.7-8.6-0.8-12.9c-0.1-4.3-0.2-8.6,0-12.9c0-0.8,0.4-1.6,1-2.2
		C22.8,191.7,23.6,191.4,24.5,191.4z"/>
	<path class="st2" d="M73,196.4l48.5-1.6c1.2,0,2.2,1,2.2,2.2v14.3c0,1.2-1,2.2-2.2,2.2L73,214.9c-1.2,0-2.2-1-2.2-2.2v-14
		C70.8,197.4,71.8,196.4,73,196.4"/>
	<path class="st0" d="M75.1,197.2c-0.4,0-0.7,0.2-1,0.4l0,0c-0.2,0.2-0.4,0.6-0.4,1v14c0,0.4,0.2,0.7,0.4,1c0.2,0.2,0.6,0.4,0.9,0.4
		l46.6-1.4c0.4,0,0.7-0.2,1-0.4c0.2-0.3,0.4-0.6,0.4-1V197c0-0.4-0.2-0.7-0.4-1c-0.2-0.2-0.6-0.4-0.9-0.4L75.1,197.2 M75,195.5
		l46.6-1.6c0.8,0,1.6,0.3,2.1,0.9c0.5,0.6,0.9,1.4,0.9,2.2v14.3c0,0.8-0.3,1.6-0.9,2.2c-0.5,0.6-1.3,0.9-2.1,0.9L75,215.8l0,0
		c-0.8,0-1.6-0.3-2.1-0.9c-0.5-0.6-0.9-1.3-0.9-2.2v-14c0-0.8,0.3-1.6,0.9-2.2l0,0l0,0l0,0C73.5,195.9,74.2,195.5,75,195.5z"/>
	<path class="st0" d="M70.1,193.2c1.3,0.1,2.4,0.5,3.2,1l0,0c0.8,0.6,1.3,1.4,1.3,2.2l0.2,19.6c0,0.8-0.6,1.6-1.4,2.1l0,0
		c-0.9,0.5-2.1,0.8-3.3,0.8c-1.3-0.1-2.4-0.4-3.2-1c-0.8-0.6-1.3-1.4-1.3-2.2l-0.1-19.6c0-0.9,0.5-1.6,1.4-2.1
		C67.6,193.5,68.8,193.2,70.1,193.2z"/>
	<path class="st0" d="M257.2,195.8c0-0.5-0.3-1-0.8-1.4c-0.4-0.3-1-0.5-1.5-0.6c-0.6,0-1.1,0.2-1.6,0.5l0,0
		c-0.3,0.3-0.8,0.1-0.8,0.1c0-0.7-0.3-1-0.8-1.4s-1.2-0.6-1.9-0.6s-1.4,0.2-1.9,0.6l0,0c-0.1,0.1-0.3-1-0.3-1c0-0.8-0.4-1.5-0.9-2
		s-1.3-0.8-2.1-0.8s-1.6,0.3-2.2,0.8c-0.6,0.5-1,1.2-0.9,2l0.3,16.9c0,0.8,0.4,1.5,0.9,2s1.3,0.8,2.1,0.8s1.6-0.3,2.2-0.8
		c0.6-0.5,1-1.2,0.9-2v-1.3c0,0,0.4,0.4,0.7,0.7l0,0c0.5,0.4,1.1,0.6,1.8,0.6s1.4-0.2,1.9-0.6c0.6-0.4,0.9-1,0.9-1.7V206
		c0.1,0.1,0.2,0.2,0.3,0.3c0.4,0.3,0.9,0.5,1.5,0.6c0.6,0,1.2-0.2,1.6-0.5c0.5-0.3,0.8-0.8,0.8-1.4L257.2,195.8z"/>
	<path class="st2" d="M134.3,190.2l12.8-0.4c1.1,0,2,0.9,2.1,2l0.4,21.8c0,1.1-0.9,2.1-2,2.2l-13,0.6c-1.1,0.1-2-0.9-2-2l-0.2-22
		C132.3,191.3,133.2,190.3,134.3,190.2"/>
	<path class="st0" d="M131.8,194.7l0.5,19.6c0,1.3-1.4,2.3-3,2.8c-0.6,0.2-1.2,0.3-1.8,0.3c-0.6,0-1.2,0-1.8-0.2
		c-1.4-0.4-2.5-1.3-2.5-2.9l-0.5-19.6c0-1.5,1-2.4,2.4-2.8c0.6-0.2,1.2-0.2,1.8-0.2c0.6,0,1.2,0.1,1.8,0.2l0,0
		C130.3,192.3,131.8,193.3,131.8,194.7z"/>
	<path class="st0" d="M134.9,191.1c-0.3,0-0.6,0.2-0.8,0.4s-0.3,0.5-0.3,0.9l0.1,21.6c0,0.3,0.1,0.6,0.3,0.8s0.5,0.3,0.7,0.3
		l11.7-0.6c0.3,0,0.6-0.2,0.8-0.4s0.3-0.5,0.3-0.9l-0.4-21.5c0-0.3-0.1-0.6-0.3-0.9l0,0l0,0l0,0c-0.2-0.2-0.5-0.3-0.7-0.3
		L134.9,191.1 M134.3,189.4l12.6-0.4c0.8,0,1.5,0.3,2,0.8l0,0c0.5,0.5,0.8,1.2,0.9,2.1l0.4,21.8c0,0.8-0.3,1.5-0.8,2.1
		c-0.5,0.5-1.2,0.9-2,0.9l-12.9,0.6c-0.8,0-1.5-0.3-2-0.8l0,0c-0.5-0.5-0.8-1.3-0.9-2.1l-0.1-22c0-0.8,0.3-1.5,0.8-2.1l0,0
		C132.8,189.8,133.5,189.4,134.3,189.4z"/>
	<path class="st0" d="M136.2,182.1l9.7-0.5c0.6,0,1.1,0.3,1.4,0.7c0.3,0.4,0.5,1,0.5,1.6v0.4c0,0.6-0.2,1.2-0.5,1.6
		c-0.3,0.5-0.8,0.8-1.4,0.8h-0.8l0.1,2.6l-8.1,0.2l-0.1-2.4h-0.9c-0.6,0-1.1-0.3-1.4-0.7c-0.3-0.4-0.5-1-0.5-1.6v-0.4
		c0-0.6,0.2-1.2,0.5-1.7C135.2,182.5,135.7,182.1,136.2,182.1z"/>
	<path class="st2" d="M158.6,193.9c-1.2,0-2.3,1-2.3,2.2c0,4.7,0,9.3,0,14c0,1.2,1,2.3,2.3,2.2c27.4-1,54.8-1.9,82.1-2.9
		c1.2,0,2.2-1,2.2-2.2c0-4.8,0-9.5,0-14.3c0-1.2-1-2.3-2.2-2.2C213.4,191.8,186,192.8,158.6,193.9"/>
	<path class="st0" d="M158.6,193c13.7-0.5,27.4-1.1,41.1-1.6l41.1-1.6c0.9,0,1.6,0.3,2.2,0.9l0,0c0.6,0.6,0.9,1.4,0.9,2.2v14.3
		c0,0.8-0.4,1.6-0.9,2.2c-0.6,0.6-1.3,0.9-2.2,0.9l0,0l0,0l0,0c-16.3,0.6-32.7,1.2-49.1,1.7c-11,0.4-22.1,0.8-33.1,1.2
		c-0.9,0-1.6-0.3-2.2-0.9l0,0c-0.6-0.6-0.9-1.4-0.9-2.2v-14c0-0.8,0.3-1.6,0.9-2.2C157,193.4,157.7,193.1,158.6,193 M157.7,194.7
		c-0.4,0-0.8,0.2-1,0.4s-0.4,0.6-0.4,0.9v14c0,0.4,0.2,0.7,0.4,1l0,0c0.3,0.2,0.6,0.4,0.9,0.4c11-0.4,22.1-0.8,33.1-1.2
		c16.3-0.6,32.7-1.2,49.1-1.7l0,0c0.4,0,0.8-0.2,1-0.4c0.3-0.2,0.4-0.6,0.4-1v-14.3c0-0.4-0.2-0.8-0.4-1l0,0l0,0l0,0
		c-0.2-0.2-0.7-0.4-42,1.2C185.1,193.6,171.4,194.1,157.7,194.7z"/>
	<path class="st2" d="M86.8,220.1l110.1-3.3c1,0,1.9,0.8,1.9,1.8v3.5c0,1-0.9,1.9-1.9,1.9l-110.1,3.3c-1,0-1.9-0.8-1.9-1.8V222
		C85,220.9,85.8,220.1,86.8,220.1"/>
	<path class="st0" d="M86.9,220c-0.3,0-0.5,0.2-0.7,0.5s-0.3,0.7-0.3,1.1v5.2c0,0.4,0.1,0.8,0.3,1c0.2,0.3,0.4,0.4,0.7,0.4
		l110.1-4.5c0.3,0,0.5-0.2,0.7-0.5s0.3-0.7,0.3-1.1v-5.2c0-0.4-0.1-0.8-0.3-1s-0.4-0.4-0.7-0.4L86.9,220 M86.8,218l110.1-4.1
		c0.8,0,1.4,0.3,1.9,0.9c0.5,0.6,0.8,1.4,0.8,2.4v4.4c0,0.9-0.3,1.8-0.8,2.4c-0.5,0.6-1.2,1-1.9,1.1l-110.1,4.1
		c-0.7,0-1.4-0.3-1.9-0.9c-0.5-0.6-0.8-1.4-0.8-2.4v-4.4c0-0.9,0.3-1.8,0.8-2.4C85.4,218.5,86.1,218.1,86.8,218z"/>
	<path class="st2" d="M82.2,219.9h0.6c1.2,0,2.3,0.8,2.2,1.8v4.6c0,1-0.7,1.8-2,1.8h-0.8C78.9,228,78.7,219.9,82.2,219.9"/>
	<path class="st0" d="M82.3,219.9c-0.9,0-1.5,0.9-1.9,2.1c-0.2,0.6-0.2,1.2-0.2,1.8s0.1,1.3,0.3,1.8c0.4,1.3,1,2.2,2,2.2h1.1
		c0.4,0,0.7-0.1,0.9-0.3c0.3-0.2,0.4-0.5,0.4-0.9V221c0-0.3-0.2-0.6-0.5-0.8s-0.8-0.4-1.3-0.4L82.3,219.9 M82.6,219h0.5
		c0.8,0,1.4,0.3,1.9,0.8s0.8,1.2,0.8,1.9v4.6c0,0.7-0.2,1.4-0.7,1.9c-0.4,0.5-1,0.8-1.8,0.8h-0.6c-1.5,0-2.5-1.4-2.9-3.2
		c-0.1-0.6-0.2-1.2-0.2-1.9c0-0.6,0.1-1.3,0.2-1.8C80.2,220.3,81.1,219,82.6,219z"/>
	<path class="st2" d="M200.7,217h-0.4c-0.8,0-1.5,0.6-1.5,1.4v3.5c0,0.8,0.5,1.4,1.3,1.4h0.5C202.9,223.4,202.9,217,200.7,217"/>
	<path class="st0" d="M200.7,216.2c1.3,0,2,1.1,2.3,2.5c0.1,0.5,0.1,1,0.1,1.5s-0.1,1-0.2,1.5c-0.3,1.5-1.1,2.6-2.4,2.6H200
		c-0.6,0-1.2-0.3-1.5-0.7l0,0c-0.4-0.4-0.6-1-0.6-1.6v-3.5c0-0.6,0.3-1.2,0.7-1.6c0.4-0.4,1-0.6,1.6-0.6L200.7,216.2 M201,217.1
		h-0.8c-0.4,0-0.7,0.1-0.9,0.2c-0.2,0.1-0.3,0.3-0.3,0.5v4.9c0,0.3,0.1,0.5,0.3,0.6l0,0c0.1,0.1,0.3,0.1,0.6,0.1h1
		c0.7,0,1.2-0.8,1.5-1.7c0.2-0.5,0.2-1,0.2-1.6s-0.1-1.1-0.2-1.6C202.1,217.8,201.6,217.1,201,217.1z"/>
	<path class="st2" d="M74.1,219c2.7,0,4.9,2.2,4.9,5c0,2.7-2.2,5-4.9,5c-2.7,0-4.9-2.2-4.9-5S71.4,219,74.1,219"/>
	<path class="st3" d="M203.2,217.9c0,0,0.3,1.4,0.2,2.2c0,1.1-0.2,2.3-0.2,2.3l3.9-0.3c0.8-0.1,1.4-0.7,1.5-1.6l0.2-1.3
		c0.1-0.7-0.4-1.3-1-1.3L203.2,217.9z"/>
	<path class="st0" d="M157.1,192.5l0.5,20.5c0,1.3-1.4,2.4-3.1,2.9c-0.6,0.2-1.2,0.3-1.8,0.3s-1.3,0-1.9-0.2c-1.4-0.4-2.5-1.3-2.6-3
		l-0.5-20.5c0-1.6,1-2.5,2.4-3c0.6-0.2,1.2-0.2,1.8-0.2s1.2,0.1,1.8,0.2l0,0C155.6,190,157.1,191.1,157.1,192.5z"/>
	<path class="st3" d="M155.2,193l0.2,17.5c0,0.7-0.7,1.4-1.6,1.6c-0.3,0.1-0.6,0.2-0.9,0.2c-0.3,0-0.6,0-0.9-0.1
		c-0.7-0.2-1.3-0.8-1.3-1.7l-0.2-17.5c0-0.9,0.5-1.4,1.2-1.7c0.3-0.1,0.6-0.1,0.9-0.1c0.3,0,0.6,0.1,0.9,0.1l0,0
		C154.4,191.6,155.2,192.2,155.2,193z"/>
	<path class="st0" d="M156.8,212.8c-1.7-1-2.3-2.4-2.3-3.6l0,0c0-0.5,0.2-1.1,0.5-1.5l0,0c0.3-0.4,0.6-0.8,1-1.1l0,0l0,0l0,0
		c1.1-0.8,2.7-1.1,4.1-0.3c5,2.8,9.7,5.2,14.4,7.7c4.9,2.6,9.8,5.2,14.4,7.7c0.4,0.2,0.6,0.9,0.4,1.3c-0.5,1-0.9,1.9-1.3,2.8
		c-0.4,0.9-0.9,1.8-1.3,2.8c-0.2,0.5-0.9,0.7-1.3,0.4c-4.7-2.7-9.5-5.4-14.2-8C166.3,218.3,161.6,215.6,156.8,212.8"/>
	<path class="st3" d="M130.3,194l0.2,17.6c0,0.8-0.8,1.4-1.8,1.7c-0.3,0.1-0.7,0.2-1.1,0.2s-0.7,0-1.1-0.1c-0.8-0.2-1.5-0.8-1.5-1.7
		l-0.2-17.6c0-0.9,0.6-1.4,1.4-1.7c0.3-0.1,0.7-0.1,1.1-0.1s0.7,0.1,1.1,0.1l0,0C129.5,192.6,130.3,193.2,130.3,194z"/>
	<path class="st0" d="M122.6,207.2c1.8-1,3.2-0.8,4.3,0l0,0c0.4,0.3,0.8,0.7,1,1.2l0,0c0.2,0.5,0.4,1,0.4,1.5l0,0l0,0l0,0
		c0.1,1.4-0.4,2.8-1.9,3.7c-4.9,2.8-9.5,5.6-14.1,8.3c-4.8,2.9-9.5,5.7-14.1,8.3c-0.4,0.2-1,0.1-1.3-0.3c-0.6-0.9-1.1-1.8-1.7-2.6
		s-1.1-1.7-1.7-2.6c-0.3-0.4-0.1-1.1,0.3-1.4c4.8-2.6,9.5-5.3,14.3-8C113,212.6,117.7,209.9,122.6,207.2"/>
	<path class="st3" d="M157.8,211.8c-1-0.6-1.4-1.4-1.3-2.1l0,0c0-0.3,0.1-0.6,0.3-0.9l0,0c0.2-0.3,0.4-0.5,0.6-0.7l0,0l0,0l0,0
		c0.7-0.5,1.6-0.6,2.4-0.2c2.9,1.6,5.7,3.1,8.5,4.6c2.9,1.5,14,7.3,14,7.3l-2.1,4.3c0,0-11-6-13.9-7.5
		C163.4,215,160.6,213.4,157.8,211.8"/>
	<path class="st2" d="M196.4,201.4c0.1,0.9,0.1,1.9,0.1,2.9c0,29.1-24.3,54.7-53.8,54.7c-29.3,0-54.9-22.7-54.9-54.5h10.4
		c0.3,23.1,19.5,41.9,43.1,41.9c23.7,0,43.1-19.1,43.1-42.5c0-1,0-1.9-0.1-2.9h10.4"/>
	<path class="st3" d="M123,208.6c1-0.6,1.9-0.5,2.5,0l0,0c0.3,0.2,0.5,0.4,0.6,0.7l0,0c0.1,0.3,0.2,0.6,0.3,0.9l0,0l0,0l0,0
		c0.1,0.8-0.3,1.7-1.1,2.2c-2.9,1.7-5.6,3.3-8.3,4.9c-2.8,1.7-13.5,8.1-13.5,8.1l-2.6-4.1c0,0,10.8-6.3,13.6-7.9
		C117.3,211.8,120.1,210.2,123,208.6"/>
	<path class="st0" d="M195.9,201.9h-10.6c0,0.2,0,0.4,0,0.5l0,0l0,0l0,0c0,0.5,0,1,0,1.5c0,23.9-19.6,43.3-43.5,43.3
		c-11.9,0-22.7-4.8-30.5-12.5c-7.7-7.6-12.6-17.9-13-29.4H88c0.4,13.8,8.1,28.7,17.3,37.8c9.4,9.3,22.4,15,36.6,15
		c28.7,0,53.9-25.7,53.9-54.3c0-0.5,0-0.9,0-1.4C195.9,202.3,195.9,202.1,195.9,201.9 M197.5,201c0,0.5,0,0.9,0.1,1.4
		c0,0.5,0,1,0,1.5c0,29.5-26,56-55.6,56c-14.7,0-28.1-5.9-37.8-15.5s-17.7-25.2-17.9-39.9c0-0.4,0.4-0.9,0.9-0.9h12
		c0.4,0,0.8,0.4,0.9,0.8c0.1,11.3,4.9,21.6,12.5,29.1c7.6,7.4,17.9,12,29.3,12c23,0,41.8-18.7,41.8-41.6c0-0.5,0-0.9,0-1.4l0,0
		c0-0.4,0-0.9-0.1-1.4c0-0.5,0.4-0.9,0.9-0.9h12.3C197.1,200.2,197.5,200.6,197.5,201z"/>
	<path class="st1" d="M143.1,218.5c-9.9-0.1-12.2,4.7-15.6,13.4c-6.5,18-12.2,38-12.2,38l-13.3-0.6c0,0,6.2-18.6,12.8-36.3
		c4.1-11,11.6-23.1,28.1-23.3c19.6-0.2,28.7,20.1,33.9,32.3c1.6,3.9,10.3,27.5,10.3,27.5h-14l-13.7-37.7
		C155.8,223.2,151.8,218.5,143.1,218.5"/>
	<path class="st2" d="M142.5,216.3c10.8,0,14.9,6,19,14.4l13.5,37.5h9.8c0,0-7.3-19.1-8.8-23c-5-12.2-14.1-33.4-33.2-33.2
		c-16,0.1-23,13.2-27.1,24.1c-6.5,17.6-10.9,31.7-10.9,31.7l9.2,0.4c0,0,4.5-18.1,10.9-36.1C128.2,223.4,131.7,216.3,142.5,216.3z"
		/>
	<path class="st3" d="M135.4,182.6l9.8-0.3c0.4,0,0.7,0.2,1,0.5c0.2,0.3,0.3,0.7,0.3,1.1l0.1,0.8c0,0.4-0.1,0.8-0.3,1.1
		s-0.6,0.5-0.9,0.6h-1.1l0.1,2.7l-7.3,0.2l-0.1-2.7h-1.4c-0.4,0-0.7-0.2-1-0.5c-0.2-0.3-0.3-0.7-0.3-1.1l-0.1-0.8
		c0-0.4,0.1-0.8,0.3-1.1S135.1,182.6,135.4,182.6z"/>
	<path class="st3" d="M69.8,194.8c0.6,0,1.2,0.3,1.6,0.8l0,0c0.4,0.5,0.7,1.2,0.6,1.9l0.1,17.2c0,0.7-0.3,1.4-0.7,1.9l0,0
		c-0.4,0.5-1,0.8-1.7,0.8c-0.6,0-1.2-0.3-1.6-0.8s-0.6-1.2-0.6-1.9l-0.1-17.2c0-0.8,0.3-1.4,0.7-1.9
		C68.6,195.1,69.2,194.8,69.8,194.8z"/>
	<path class="st3" d="M245.3,210.1H245c-1,0-1.8-0.8-1.8-1.8v-15.9c0-1,0.8-1.8,1.8-1.8h0.3c1,0,1.8,0.8,1.8,1.8v15.9
		C247.1,209.2,246.3,210.1,245.3,210.1z"/>
	<path class="st3" d="M249.8,208.3h-1.2c-0.9,0-1.6-0.8-1.6-1.8v-10.6c0-1,0.8-2.1,1.6-2.4h1.2c0.9,0,1.6,1,1.6,2v10.9
		C251.4,207.5,250.6,208.3,249.8,208.3z"/>
	<path class="st3" d="M255.1,207h-1c-0.7,0-1.2-0.5-1.2-1.2v-9.5c0-0.7,0.5-1.2,1.2-1.2h1c0.7,0,1.2,0.5,1.2,1.2v9.5
		C256.3,206.5,255.8,207,255.1,207z"/>
	<path class="st0" d="M95.5,216.7l-7.9,2.1c-0.5,0.1-1,0.3-1.4-0.9c-0.3-1.2,0.2-1.4,0.7-1.5l7.9-2.1c0.5-0.1,1.1-0.3,1.4,0.9
		S96,216.5,95.5,216.7z"/>
	<path class="st0" d="M100.1,227.5l-7.1,4.1c-0.5,0.3-0.9,0.5-1.6-0.5c-0.6-1.1-0.2-1.4,0.3-1.6l7.1-4.1c0.5-0.3,0.9-0.5,1.6,0.5
		C101,226.9,100.5,227.2,100.1,227.5z"/>
	<path class="st0" d="M107.3,236.7l-5.8,5.8c-0.4,0.4-0.8,0.8-1.7-0.1c-0.9-0.9-0.5-1.3-0.1-1.7l5.8-5.8c0.4-0.4,0.8-0.8,1.7,0.1
		C108.1,236,107.7,236.3,107.3,236.7z"/>
	<path class="st0" d="M133.2,251.5l-2.1,7.9c-0.1,0.5-0.3,1-1.5,0.7s-1.1-0.8-0.9-1.4l2.1-7.9c0.1-0.5,0.3-1.1,1.5-0.7
		C133.5,250.5,133.3,251,133.2,251.5z"/>
	<path class="st0" d="M145.1,251.8v8.2c0,0.5,0,1.1-1.3,1.1s-1.3-0.5-1.3-1.1v-8.2c0-0.5,0-1.1,1.3-1.1
		C145.1,250.8,145.1,251.3,145.1,251.8z"/>
	<path class="st0" d="M156.5,250.5l2.1,7.9c0.1,0.5,0.3,1-0.9,1.4c-1.2,0.3-1.4-0.2-1.5-0.7l-2.1-7.9c-0.1-0.5-0.3-1.1,0.9-1.4
		C156.2,249.4,156.3,250,156.5,250.5z"/>
	<path class="st0" d="M181,232.5l6,5.6c0.4,0.4,0.8,0.7,0,1.7c-0.9,0.9-1.2,0.6-1.7,0.2l-6-5.6c-0.4-0.4-0.8-0.7,0.1-1.7
		C180.2,231.7,180.6,232.1,181,232.5z"/>
	<path class="st0" d="M186.4,222.4l7.3,3.8c0.5,0.3,1,0.5,0.4,1.6s-1.1,0.9-1.5,0.6l-7.3-3.8c-0.5-0.2-1-0.5-0.4-1.6
		S185.9,222.1,186.4,222.4z"/>
	<path class="st0" d="M190.5,211l8,1.8c0.5,0.1,1.1,0.2,0.8,1.5c-0.3,1.2-0.8,1.1-1.3,1l-8-1.8c-0.5-0.1-1.1-0.2-0.8-1.5
		C189.4,210.8,190,210.9,190.5,211z"/>
</g>
<g class="st4">
	<path class="st0" d="M309.2,78.6h25.9c11.3,0,18.3,6.1,18.3,15.5c0,5.7-3.1,10.4-7.8,12.1c6.1,1.8,10.1,6.7,10.1,12.7
		c0,10.6-7.6,17.1-20.3,17.1h-26.2V78.6z M332.2,100.9c3.6,0,6.1-1.8,6.1-4.9c0-3.4-2.4-5-6-5H324v9.9H332.2z M333.2,123.6
		c4.7,0,7.2-2.5,7.2-5.6s-2.4-5.4-7.2-5.4H324v10.9L333.2,123.6L333.2,123.6z"/>
	<path class="st0" d="M365.7,136V78.6h20.7c14.3,0,23.3,7.6,23.3,19.7c0,6.3-3.4,12-9.6,15.5l11.6,16.1v6h-14.5L385,117.8h-3.8V136
		H365.7z M386.3,105.4c4.8,0,7.8-2.9,7.8-7.2c0-4.1-2.9-6.6-7.8-6.6h-5.4v13.8C380.9,105.4,386.3,105.4,386.3,105.4z"/>
	<path class="st0" d="M418,107c0-17.9,11.4-29.8,28.5-29.8S475,89.1,475,107c0,18.1-11.4,30.3-28.5,30.3S418,125.2,418,107z
		 M459.4,107c0-9.9-5-16.5-12.9-16.5c-8,0-12.9,6.6-12.9,16.5c0,10.3,5,17,12.9,17C454.3,124,459.4,117.3,459.4,107z"/>
	<path class="st0" d="M482.4,107c0-17.9,11.4-29.8,28.5-29.8s28.5,11.9,28.5,29.8c0,18.1-11.4,30.3-28.5,30.3
		C493.8,137.3,482.4,125.2,482.4,107z M523.7,107c0-9.9-5-16.5-12.9-16.5c-8,0-12.9,6.6-12.9,16.5c0,10.3,5,17,12.9,17
		S523.7,117.3,523.7,107z"/>
	<path class="st0" d="M565,136h-15.5V78.6H565v22.9l17.9-22.9H596v6l-17.1,21.3l19.5,24.1v6h-14.8L565,112.7V136z"/>
	<path class="st0" d="M606.7,78.6h15.5v44h22V136h-37.5V78.6z"/>
	<path class="st0" d="M659.4,113.8l-17.8-29.1v-6h14.8l11.7,21.3l11.2-21.3h13.1v6L675,114v22h-15.5L659.4,113.8L659.4,113.8z"/>
	<path class="st0" d="M700.3,78.6h14.8l21.3,31.5V78.6h14.8V136h-14.8l-21.3-30.9V136h-14.8V78.6z"/>
	<path class="st0" d="M791.8,92h-15.1V78.6h45.8V92h-15.1v44h-15.5V92H791.8z"/>
	<path class="st0" d="M831.5,78.6h38.2V92h-22.6v8.5h19.7v12.1h-19.7v10h22.6V136h-38.2V78.6z"/>
	<path class="st0" d="M877.3,107.4c0-18.9,11.2-30.1,28-30.1c14.5,0,20.7,7.5,22.2,13.8v6H915c-0.8-3.7-3.9-6.4-9.6-6.4
		c-7.4,0-12.5,5.5-12.5,16.8c0,10.9,5,16.7,12.5,16.7c5.6,0,9-3.1,9.9-6.7h12.5v6c-1.9,7.7-9.8,14.2-22.6,14.2
		C888.3,137.3,877.3,125.9,877.3,107.4z"/>
	<path class="st0" d="M937.3,78.6h15.5v21.3h19.1V78.6h15.5V136h-15.5v-22.8h-19.1V136h-15.5V78.6z"/>
</g>
<g>
	<path class="st0" d="M307.2,207.4v-4.1l13.9-39.7h13.1l13.8,39.1v4.7h-10.9l-2.5-7.7h-15.2l-2.5,7.7L307.2,207.4L307.2,207.4z
		 M327.2,175.3l-4.7,14.7h9.2L327.2,175.3z"/>
	<path class="st0" d="M354.4,163.6h11.9v33.6H383v10.2h-28.6V163.6z"/>
	<path class="st0" d="M388.4,191.2v-27.6h11.9v27.6c0,3.9,2.5,7.1,6.7,7.1c4.6,0,6.9-3.2,6.9-7.1v-27.6h11.3v27.6
		c0,9.5-7.2,17.3-18,17.3C395.7,208.5,388.4,200.7,388.4,191.2z"/>
	<path class="st0" d="M445.9,181.6v25.9h-11.3v-43.8h14.5l8.8,20.8l8.7-20.8h14.5v43.8h-11.9v-25.9l-7.7,17.9h-7.9L445.9,181.6z"/>
	<path class="st0" d="M491,163.6h11.3l16.3,24.1v-24.1h11.3v43.8h-11.3l-16.3-23.6v23.6H491V163.6z"/>
	<path class="st0" d="M539.7,163.6h11.9v43.8h-11.9V163.6z"/>
	<path class="st0" d="M575.4,163.6h28.1v10.2h-16.3v7.1h14.5v9.2h-14.5v17.3h-11.9v-43.8H575.4z"/>
	<path class="st0" d="M608.7,185.4c0-13.7,8.7-22.8,21.7-22.8s21.7,9.1,21.7,22.8c0,13.8-8.7,23.1-21.7,23.1
		S608.7,199.2,608.7,185.4z M640.3,185.4c0-7.6-3.9-12.6-9.9-12.6c-6.1,0-9.9,5-9.9,12.6c0,7.8,3.8,13,9.9,13
		C636.4,198.3,640.3,193.2,640.3,185.4z"/>
	<path class="st0" d="M659.5,191.2v-27.6h11.9v27.6c0,3.9,2.5,7.1,6.7,7.1c4.6,0,6.9-3.2,6.9-7.1v-27.6h11.3v27.6
		c0,9.5-7.2,17.3-18,17.3C666.7,208.5,659.5,200.7,659.5,191.2z"/>
	<path class="st0" d="M705.8,163.6H717l16.3,24.1v-24.1h11.3v43.8h-11.3L717,183.9v23.6h-11.3L705.8,163.6L705.8,163.6z"/>
	<path class="st0" d="M754.5,163.6H771c13.4,0,21.6,9.8,21.6,21.7c0,12.1-8.2,22.1-21.6,22.1h-16.6L754.5,163.6L754.5,163.6z
		 M770.9,197.2c6.2,0,9.5-5.3,9.5-11.9c0-6.3-3.2-11.5-9.5-11.5h-4.6v23.4H770.9z"/>
	<path class="st0" d="M795.8,207.4v-4.1l13.9-39.7h13.1l13.8,39.1v4.7h-10.9l-2.5-7.7H808l-2.5,7.7L795.8,207.4L795.8,207.4z
		 M815.8,175.3l-4.7,14.7h9.2L815.8,175.3z"/>
	<path class="st0" d="M848.1,173.9h-11.6v-10.2h35v10.2H860v33.6h-11.9V173.9z"/>
	<path class="st0" d="M878.4,163.6h11.9v43.8h-11.9V163.6z"/>
	<path class="st0" d="M898.1,185.4c0-13.7,8.7-22.8,21.7-22.8s21.7,9.1,21.7,22.8c0,13.8-8.7,23.1-21.7,23.1
		S898.1,199.2,898.1,185.4z M929.7,185.4c0-7.6-3.9-12.6-9.9-12.6c-6.1,0-9.9,5-9.9,12.6c0,7.8,3.8,13,9.9,13
		C925.8,198.3,929.7,193.2,929.7,185.4z"/>
	<path class="st0" d="M949.3,163.6h11.3l16.3,24.1v-24.1h11.3v43.8h-11.3l-16.3-23.6v23.6h-11.3V163.6z"/>
</g>
</svg>
