<?xml version="1.0" standalone="no"?>
<!DOCTYPE svg PUBLIC "-//W3C//DTD SVG 1.1//EN" "http://www.w3.org/Graphics/SVG/1.1/DTD/svg11.dtd">
<svg xmlns="http://www.w3.org/2000/svg" id="Layer_1" data-name="Layer 1" viewBox="0 0 2342.48 839.09"
    width="2342.47998046875" height="839.0900268554688">
    <defs>
        <style>
            .cls-1 {
                fill: #dce0df;
            }
        </style>
    </defs>
    <path class="cls-1"
        d="M1133.87,293h71.78V531.7h-46.48V370.23q0-7,.16-19.52t.16-19.35L1114.25,531.7h-48.48l-44.92-200.34q0,6.79.16,19.35t.17,19.52V531.7H974.69V293h72.59l43.46,187.72Z" />
    <path class="cls-1"
        d="M1309.71,424.32q12.88-1.6,18.44-4,9.94-4.21,9.95-13.12,0-10.86-7.63-15t-22.41-4.13q-16.59,0-23.48,8.09-4.92,6-6.57,16.2h-44.54q1.47-23.16,13-38.06Q1264.87,351,1309.6,351q29.12,0,51.73,11.5t22.6,43.4v81q0,8.43.33,20.41.48,9.07,2.75,12.31a16.51,16.51,0,0,0,6.8,5.34v6.8h-50.2a50.78,50.78,0,0,1-2.92-10q-.81-4.7-1.29-10.69a95.22,95.22,0,0,1-22.16,17.66q-15,8.58-33.89,8.58-24.11,0-39.83-13.68t-15.71-38.79q0-32.57,25.28-47.13,13.88-7.94,40.8-11.34Zm28.23,21.55a51.41,51.41,0,0,1-9,4.45,75.73,75.73,0,0,1-12.4,3.16l-10.5,1.94q-14.77,2.59-21.22,6.32-10.9,6.31-10.91,19.59,0,11.84,6.66,17.09a25.32,25.32,0,0,0,16.2,5.27,48.26,48.26,0,0,0,27.88-8.75q12.75-8.74,13.24-31.91Z" />
    <path class="cls-1"
        d="M1415.49,293.78h45.34V422.57L1519.05,356h57.4l-63.27,65.76,65.72,110h-56.17L1480,456.28l-19.12,19.87V531.7h-45.34Z" />
    <path class="cls-1"
        d="M1707.19,358.74a71.89,71.89,0,0,1,30.51,26.12,86.67,86.67,0,0,1,14.06,36.5q1.88,12.17,1.52,35H1624.71q1.07,26.57,18.46,37.25,10.57,6.64,25.45,6.64,15.77,0,25.63-8.09a39,39,0,0,0,9.5-12.15h47.12q-1.86,15.7-17.11,31.91-23.71,25.74-66.41,25.75-35.25,0-62.19-21.72t-26.94-70.68q0-45.87,24.32-70.35t63.13-24.48Q1688.73,350.47,1707.19,358.74Zm-69,39.88q-9.8,10.08-12.3,27.32h79.52q-1.26-18.37-12.29-27.89t-27.38-9.52Q1647.92,388.53,1638.14,398.62Z" />
    <path class="cls-1" d="M1815.46,531.7h-46.15V293h46.15Z" />
    <path class="cls-1"
        d="M1922.12,424.32q12.89-1.6,18.43-4,10-4.21,10-13.12,0-10.86-7.64-15t-22.41-4.13q-16.57,0-23.47,8.09-4.93,6-6.57,16.2h-44.54q1.45-23.16,13-38.06Q1877.28,351,1922,351q29.12,0,51.72,11.5t22.61,43.4v81q0,8.43.33,20.41.48,9.07,2.75,12.31a16.51,16.51,0,0,0,6.8,5.34v6.8H1956a51.39,51.39,0,0,1-2.91-10q-.81-4.7-1.3-10.69a95,95,0,0,1-22.15,17.66q-15,8.58-33.89,8.58-24.1,0-39.83-13.68t-15.72-38.79q0-32.57,25.29-47.13,13.88-7.94,40.79-11.34Zm28.22,21.55a51.06,51.06,0,0,1-8.95,4.45,75.84,75.84,0,0,1-12.39,3.16l-10.51,1.94q-14.77,2.59-21.21,6.32-10.9,6.31-10.91,19.59,0,11.84,6.66,17.09a25.32,25.32,0,0,0,16.2,5.27,48.21,48.21,0,0,0,27.87-8.75q12.75-8.74,13.24-31.91Z" />
    <path class="cls-1"
        d="M2179.12,376.38q19.8,25.11,19.8,64.79,0,41.15-19.53,68.18t-54.54,27q-22,0-35.32-8.74-8-5.19-17.26-18.14V531.7h-45.51V293.3h46.16v84.87q8.79-12.32,19.39-18.79,12.55-8.1,32-8.1Q2159.32,351.28,2179.12,376.38Zm-38.59,107.55q10-14.42,10-37.9,0-18.79-4.9-31.1-9.32-23.32-34.29-23.32-25.32,0-34.79,22.84-4.91,12.14-4.9,31.42,0,22.67,10.13,37.57t30.86,14.9Q2130.58,498.34,2140.53,483.93Z" />
    <path class="cls-1"
        d="M251.82,707.71c-14.18,0-24.48-14.94-24.48-35.52s10.3-35.53,24.48-35.53H768.53a11.94,11.94,0,1,0,0-23.87H251.82c-14.18,0-24.48-14.94-24.48-35.52s10.3-35.53,24.48-35.53H768.53a11.94,11.94,0,1,0,0-23.87H251.82c-14.18,0-24.48-14.94-24.48-35.52s10.3-35.53,24.48-35.53H495a9,9,0,0,0,8.94-8.91V375.38a.41.41,0,0,1,.42-.41h22.75a.41.41,0,0,1,.42.41v62.44c0,18.27-11.25,32.59-25.6,32.59H262.76a11.85,11.85,0,0,0-11.83,11.81v.11a12,12,0,0,0,11.95,11.95H779.59c14.18,0,24.47,14.94,24.47,35.53s-10.29,35.52-24.47,35.52H262.76a11.85,11.85,0,0,0-11.83,11.81v.26a11.85,11.85,0,0,0,11.84,11.8H779.59c14.18,0,24.47,14.94,24.47,35.53s-10.29,35.52-24.47,35.52H262.77a11.85,11.85,0,0,0-11.84,11.81v.26a11.85,11.85,0,0,0,11.83,11.8H804.9a14.32,14.32,0,0,0,14.31-14.3V169.27A14.33,14.33,0,0,0,804.9,155h-168a6.5,6.5,0,0,0-5.82,3.66L535.83,357.3a4.44,4.44,0,0,1-4,2.51H499.57a4.44,4.44,0,0,1-4-2.51l-95.2-198.67a6.5,6.5,0,0,0-5.83-3.67h-169a14.33,14.33,0,0,0-14.31,14.31v538a.41.41,0,0,1-.41.42H188.1a.42.42,0,0,1-.41-.42V161.43a30.08,30.08,0,0,1,30.05-30.05H394.55a30.21,30.21,0,0,1,27.1,17.06l88.23,184.12a6.46,6.46,0,0,0,11.65,0l88.23-184.13a30.2,30.2,0,0,1,27.09-17.05h175.9a30.08,30.08,0,0,1,30,30V677.66a30.08,30.08,0,0,1-30,30.05Z" />
</svg>